%
M48
M72
T01C0.0200
T02C0.0236
T03C0.0315
T04C0.0400
T05C0.0949
T06C0.1260
%
T01
X5170Y6537
X5770Y7537
X5970Y10537
T02
X3384Y17539
X2980Y20537
X1230Y18057
X820Y18927
X5540Y18127
X5770Y18877
T03
X3232Y5028
X4020Y5028
X4807Y5028
X5595Y5028
X6382Y5028
X7169Y5028
X7957Y5028
X8744Y5028
X9532Y5028
X10319Y5028
X10319Y13689
X9532Y13689
X8744Y13689
X7957Y13689
X7169Y13689
X6382Y13689
X5595Y13689
X4807Y13689
X4020Y13689
X3232Y13689
T04
X3280Y3497
X4280Y3597
X5280Y3497
X6280Y3597
X7280Y3497
X7650Y1097
X6650Y997
X5650Y1097
X4650Y997
X3650Y1097
X8650Y997
X4700Y19517
X3700Y19617
X2700Y19517
X1700Y19617
T05
X5893Y22797
X8767Y22797
T06
X1745Y1711
X10406Y1711
X10406Y22184
X1745Y22184
M30
