G75*
G70*
%OFA0B0*%
%FSLAX24Y24*%
%IPPOS*%
%LPD*%
%AMOC8*
5,1,8,0,0,1.08239X$1,22.5*
%
%ADD10C,0.0020*%
%ADD11C,0.0050*%
%ADD12C,0.0030*%
%ADD13C,0.0040*%
%ADD14C,0.0100*%
D10*
X001783Y009190D02*
X001710Y009263D01*
X001783Y009337D01*
X001930Y009337D01*
X001930Y009411D02*
X001930Y009521D01*
X001893Y009558D01*
X001747Y009558D01*
X001710Y009521D01*
X001710Y009411D01*
X001930Y009411D01*
X001820Y009337D02*
X001820Y009190D01*
X001783Y009190D02*
X001930Y009190D01*
X001893Y009632D02*
X001747Y009632D01*
X001710Y009669D01*
X001710Y009742D01*
X001747Y009779D01*
X001893Y009632D01*
X001930Y009669D01*
X001930Y009742D01*
X001893Y009779D01*
X001747Y009779D01*
X001930Y009853D02*
X001710Y010000D01*
X001710Y010074D02*
X001710Y010184D01*
X001747Y010221D01*
X001893Y010221D01*
X001930Y010184D01*
X001930Y010074D01*
X001710Y010074D01*
X001710Y010295D02*
X001710Y010368D01*
X001710Y010332D02*
X001930Y010332D01*
X001930Y010368D02*
X001930Y010295D01*
X001893Y010442D02*
X001747Y010589D01*
X001893Y010589D01*
X001930Y010552D01*
X001930Y010479D01*
X001893Y010442D01*
X001747Y010442D01*
X001710Y010479D01*
X001710Y010552D01*
X001747Y010589D01*
X002520Y010506D02*
X002740Y010506D01*
X002740Y010579D02*
X002740Y010432D01*
X002740Y010358D02*
X002740Y010285D01*
X002740Y010322D02*
X002520Y010322D01*
X002520Y010358D02*
X002520Y010285D01*
X002557Y010211D02*
X002520Y010174D01*
X002520Y010064D01*
X002740Y010064D01*
X002740Y010174D01*
X002703Y010211D01*
X002557Y010211D01*
X002593Y010432D02*
X002520Y010506D01*
X002520Y009990D02*
X002740Y009843D01*
X002740Y009769D02*
X002740Y009622D01*
X002740Y009695D02*
X002520Y009695D01*
X002593Y009622D01*
X002557Y009548D02*
X002703Y009548D01*
X002740Y009511D01*
X002740Y009401D01*
X002520Y009401D01*
X002520Y009511D01*
X002557Y009548D01*
X002593Y009327D02*
X002520Y009253D01*
X002593Y009180D01*
X002740Y009180D01*
X002630Y009180D02*
X002630Y009327D01*
X002593Y009327D02*
X002740Y009327D01*
X003290Y009391D02*
X003290Y009501D01*
X003327Y009538D01*
X003473Y009538D01*
X003510Y009501D01*
X003510Y009391D01*
X003290Y009391D01*
X003363Y009317D02*
X003290Y009243D01*
X003363Y009170D01*
X003510Y009170D01*
X003400Y009170D02*
X003400Y009317D01*
X003363Y009317D02*
X003510Y009317D01*
X003510Y009612D02*
X003363Y009759D01*
X003327Y009759D01*
X003290Y009722D01*
X003290Y009649D01*
X003327Y009612D01*
X003510Y009612D02*
X003510Y009759D01*
X003510Y009833D02*
X003290Y009980D01*
X003290Y010054D02*
X003290Y010164D01*
X003327Y010201D01*
X003473Y010201D01*
X003510Y010164D01*
X003510Y010054D01*
X003290Y010054D01*
X003290Y010275D02*
X003290Y010348D01*
X003290Y010312D02*
X003510Y010312D01*
X003510Y010348D02*
X003510Y010275D01*
X003510Y010422D02*
X003363Y010569D01*
X003327Y010569D01*
X003290Y010532D01*
X003290Y010459D01*
X003327Y010422D01*
X003510Y010422D02*
X003510Y010569D01*
X004110Y010532D02*
X004147Y010569D01*
X004183Y010569D01*
X004220Y010532D01*
X004257Y010569D01*
X004293Y010569D01*
X004330Y010532D01*
X004330Y010459D01*
X004293Y010422D01*
X004330Y010348D02*
X004330Y010275D01*
X004330Y010312D02*
X004110Y010312D01*
X004110Y010348D02*
X004110Y010275D01*
X004147Y010201D02*
X004110Y010164D01*
X004110Y010054D01*
X004330Y010054D01*
X004330Y010164D01*
X004293Y010201D01*
X004147Y010201D01*
X004147Y010422D02*
X004110Y010459D01*
X004110Y010532D01*
X004220Y010532D02*
X004220Y010496D01*
X004110Y009980D02*
X004330Y009833D01*
X004293Y009759D02*
X004330Y009722D01*
X004330Y009649D01*
X004293Y009612D01*
X004293Y009538D02*
X004147Y009538D01*
X004110Y009501D01*
X004110Y009391D01*
X004330Y009391D01*
X004330Y009501D01*
X004293Y009538D01*
X004147Y009612D02*
X004110Y009649D01*
X004110Y009722D01*
X004147Y009759D01*
X004183Y009759D01*
X004220Y009722D01*
X004257Y009759D01*
X004293Y009759D01*
X004220Y009722D02*
X004220Y009685D01*
X004220Y009317D02*
X004220Y009170D01*
X004183Y009170D02*
X004110Y009243D01*
X004183Y009317D01*
X004330Y009317D01*
X004330Y009170D02*
X004183Y009170D01*
X004880Y009140D02*
X004880Y009250D01*
X004917Y009287D01*
X004990Y009287D01*
X005027Y009250D01*
X005027Y009140D01*
X005100Y009140D02*
X004880Y009140D01*
X005027Y009213D02*
X005100Y009287D01*
X005063Y009361D02*
X005100Y009398D01*
X005100Y009471D01*
X005063Y009508D01*
X005027Y009508D01*
X004990Y009471D01*
X004990Y009398D01*
X004953Y009361D01*
X004917Y009361D01*
X004880Y009398D01*
X004880Y009471D01*
X004917Y009508D01*
X004880Y009582D02*
X004880Y009729D01*
X004880Y009655D02*
X005100Y009655D01*
X005100Y009803D02*
X004880Y009950D01*
X004953Y010024D02*
X004880Y010097D01*
X004953Y010171D01*
X005100Y010171D01*
X005100Y010245D02*
X005100Y010355D01*
X005063Y010392D01*
X004917Y010392D01*
X004880Y010355D01*
X004880Y010245D01*
X005100Y010245D01*
X004990Y010171D02*
X004990Y010024D01*
X004953Y010024D02*
X005100Y010024D01*
X005063Y010466D02*
X004990Y010466D01*
X004990Y010576D01*
X005027Y010613D01*
X005063Y010613D01*
X005100Y010576D01*
X005100Y010503D01*
X005063Y010466D01*
X004990Y010466D02*
X004917Y010539D01*
X004880Y010613D01*
X004880Y010834D02*
X005100Y010687D01*
X005100Y010908D02*
X005100Y011018D01*
X005063Y011055D01*
X004917Y011055D01*
X004880Y011018D01*
X004880Y010908D01*
X005100Y010908D01*
X005100Y011129D02*
X005100Y011202D01*
X005100Y011166D02*
X004880Y011166D01*
X004880Y011202D02*
X004880Y011129D01*
X004990Y011276D02*
X004917Y011350D01*
X004880Y011423D01*
X004990Y011386D02*
X004990Y011276D01*
X005063Y011276D01*
X005100Y011313D01*
X005100Y011386D01*
X005063Y011423D01*
X005027Y011423D01*
X004990Y011386D01*
X005570Y011453D02*
X005570Y011306D01*
X005680Y011306D01*
X005643Y011380D01*
X005643Y011416D01*
X005680Y011453D01*
X005753Y011453D01*
X005790Y011416D01*
X005790Y011343D01*
X005753Y011306D01*
X005790Y011232D02*
X005790Y011159D01*
X005790Y011196D02*
X005570Y011196D01*
X005570Y011232D02*
X005570Y011159D01*
X005607Y011085D02*
X005570Y011048D01*
X005570Y010938D01*
X005790Y010938D01*
X005790Y011048D01*
X005753Y011085D01*
X005607Y011085D01*
X005570Y010864D02*
X005790Y010717D01*
X005753Y010643D02*
X005790Y010606D01*
X005790Y010533D01*
X005753Y010496D01*
X005680Y010496D02*
X005643Y010569D01*
X005643Y010606D01*
X005680Y010643D01*
X005753Y010643D01*
X005680Y010496D02*
X005570Y010496D01*
X005570Y010643D01*
X005607Y010422D02*
X005570Y010385D01*
X005570Y010275D01*
X005790Y010275D01*
X005790Y010385D01*
X005753Y010422D01*
X005607Y010422D01*
X005643Y010201D02*
X005790Y010201D01*
X005680Y010201D02*
X005680Y010054D01*
X005643Y010054D02*
X005790Y010054D01*
X005643Y010054D02*
X005570Y010127D01*
X005643Y010201D01*
X005570Y009980D02*
X005790Y009833D01*
X005753Y009759D02*
X005790Y009722D01*
X005790Y009649D01*
X005753Y009612D01*
X005753Y009538D02*
X005790Y009501D01*
X005790Y009428D01*
X005753Y009391D01*
X005680Y009428D02*
X005680Y009501D01*
X005717Y009538D01*
X005753Y009538D01*
X005680Y009428D02*
X005643Y009391D01*
X005607Y009391D01*
X005570Y009428D01*
X005570Y009501D01*
X005607Y009538D01*
X005607Y009612D02*
X005643Y009612D01*
X005680Y009649D01*
X005680Y009722D01*
X005717Y009759D01*
X005753Y009759D01*
X005607Y009759D02*
X005570Y009722D01*
X005570Y009649D01*
X005607Y009612D01*
X005643Y009317D02*
X005790Y009317D01*
X005680Y009317D02*
X005680Y009170D01*
X005643Y009170D02*
X005790Y009170D01*
X005643Y009170D02*
X005570Y009243D01*
X005643Y009317D01*
X006480Y009327D02*
X006627Y009327D01*
X006700Y009253D01*
X006627Y009180D01*
X006480Y009180D01*
X006480Y009401D02*
X006480Y009511D01*
X006517Y009548D01*
X006590Y009548D01*
X006627Y009511D01*
X006627Y009401D01*
X006700Y009401D02*
X006480Y009401D01*
X006627Y009474D02*
X006700Y009548D01*
X006700Y009622D02*
X006700Y009769D01*
X006700Y009843D02*
X006480Y009843D01*
X006480Y009990D01*
X006590Y009916D02*
X006590Y009843D01*
X006480Y009769D02*
X006480Y009622D01*
X006700Y009622D01*
X006590Y009622D02*
X006590Y009695D01*
X007240Y009729D02*
X007460Y009582D01*
X007460Y009508D02*
X007240Y009508D01*
X007240Y009361D02*
X007460Y009508D01*
X007460Y009361D02*
X007240Y009361D01*
X007277Y009287D02*
X007240Y009250D01*
X007240Y009177D01*
X007277Y009140D01*
X007423Y009140D01*
X007460Y009177D01*
X007460Y009250D01*
X007423Y009287D01*
X007277Y009287D01*
X007277Y009803D02*
X007313Y009803D01*
X007350Y009840D01*
X007350Y009913D01*
X007387Y009950D01*
X007423Y009950D01*
X007460Y009913D01*
X007460Y009840D01*
X007423Y009803D01*
X007460Y010024D02*
X007460Y010171D01*
X007460Y010245D02*
X007460Y010392D01*
X007460Y010466D02*
X007460Y010613D01*
X007460Y010687D02*
X007240Y010687D01*
X007240Y010797D01*
X007277Y010834D01*
X007350Y010834D01*
X007387Y010797D01*
X007387Y010687D01*
X007350Y010539D02*
X007350Y010466D01*
X007240Y010466D02*
X007460Y010466D01*
X007350Y010318D02*
X007350Y010245D01*
X007240Y010245D02*
X007460Y010245D01*
X007460Y010024D02*
X007240Y010024D01*
X007277Y009950D02*
X007240Y009913D01*
X007240Y009840D01*
X007277Y009803D01*
X007240Y010245D02*
X007240Y010392D01*
X007240Y010466D02*
X007240Y010613D01*
X008030Y010539D02*
X008030Y010392D01*
X008030Y010318D02*
X008030Y010245D01*
X008030Y010282D02*
X008250Y010282D01*
X008250Y010318D02*
X008250Y010245D01*
X008213Y010171D02*
X008067Y010171D01*
X008030Y010134D01*
X008030Y010024D01*
X008250Y010024D01*
X008250Y010134D01*
X008213Y010171D01*
X008213Y010392D02*
X008250Y010392D01*
X008213Y010392D02*
X008067Y010539D01*
X008030Y010539D01*
X008030Y009950D02*
X008250Y009803D01*
X008213Y009729D02*
X008250Y009692D01*
X008250Y009619D01*
X008213Y009582D01*
X008140Y009619D02*
X008140Y009692D01*
X008177Y009729D01*
X008213Y009729D01*
X008140Y009619D02*
X008103Y009582D01*
X008067Y009582D01*
X008030Y009619D01*
X008030Y009692D01*
X008067Y009729D01*
X008030Y009508D02*
X008030Y009361D01*
X008030Y009434D02*
X008250Y009434D01*
X008213Y009287D02*
X008250Y009250D01*
X008250Y009177D01*
X008213Y009140D01*
X008067Y009140D01*
X008030Y009177D01*
X008030Y009250D01*
X008067Y009287D01*
X008860Y009253D02*
X008933Y009327D01*
X009080Y009327D01*
X009080Y009401D02*
X009080Y009511D01*
X009043Y009548D01*
X008897Y009548D01*
X008860Y009511D01*
X008860Y009401D01*
X009080Y009401D01*
X008970Y009327D02*
X008970Y009180D01*
X008933Y009180D02*
X008860Y009253D01*
X008933Y009180D02*
X009080Y009180D01*
X008970Y009622D02*
X008970Y009769D01*
X009080Y009732D02*
X008860Y009732D01*
X008970Y009622D01*
X009080Y009843D02*
X008860Y009990D01*
X008860Y010064D02*
X008860Y010174D01*
X008897Y010211D01*
X009043Y010211D01*
X009080Y010174D01*
X009080Y010064D01*
X008860Y010064D01*
X008860Y010285D02*
X008860Y010358D01*
X008860Y010322D02*
X009080Y010322D01*
X009080Y010358D02*
X009080Y010285D01*
X008970Y010432D02*
X008970Y010579D01*
X009080Y010542D02*
X008860Y010542D01*
X008970Y010432D01*
X007460Y014510D02*
X007240Y014510D01*
X007240Y014620D01*
X007277Y014657D01*
X007423Y014657D01*
X007460Y014620D01*
X007460Y014510D01*
X007460Y014731D02*
X007460Y014804D01*
X007460Y014768D02*
X007240Y014768D01*
X007240Y014804D02*
X007240Y014731D01*
X007240Y014878D02*
X007460Y015025D01*
X007240Y015025D01*
X007240Y014878D02*
X007460Y014878D01*
X007460Y015099D02*
X007240Y015246D01*
X007277Y015320D02*
X007423Y015320D01*
X007460Y015357D01*
X007460Y015430D01*
X007423Y015467D01*
X007423Y015541D02*
X007460Y015578D01*
X007460Y015651D01*
X007423Y015688D01*
X007277Y015688D01*
X007240Y015651D01*
X007240Y015578D01*
X007277Y015541D01*
X007423Y015541D01*
X007460Y015762D02*
X007240Y015762D01*
X007460Y015909D01*
X007240Y015909D01*
X007240Y015983D02*
X007240Y016130D01*
X007240Y016204D02*
X007240Y016278D01*
X007240Y016241D02*
X007460Y016241D01*
X007460Y016204D02*
X007460Y016278D01*
X007423Y016352D02*
X007460Y016388D01*
X007460Y016462D01*
X007423Y016498D01*
X007350Y016498D01*
X007350Y016425D01*
X007277Y016352D02*
X007423Y016352D01*
X007350Y016057D02*
X007350Y015983D01*
X007460Y015983D02*
X007240Y015983D01*
X007277Y016352D02*
X007240Y016388D01*
X007240Y016462D01*
X007277Y016498D01*
X007277Y015467D02*
X007240Y015430D01*
X007240Y015357D01*
X007277Y015320D01*
X006640Y015950D02*
X006640Y016060D01*
X006603Y016097D01*
X006457Y016097D01*
X006420Y016060D01*
X006420Y015950D01*
X006640Y015950D01*
X006603Y016171D02*
X006457Y016318D01*
X006603Y016318D01*
X006640Y016281D01*
X006640Y016208D01*
X006603Y016171D01*
X006457Y016171D01*
X006420Y016208D01*
X006420Y016281D01*
X006457Y016318D01*
X006457Y016392D02*
X006493Y016392D01*
X006530Y016429D01*
X006530Y016502D01*
X006567Y016539D01*
X006603Y016539D01*
X006640Y016502D01*
X006640Y016429D01*
X006603Y016392D01*
X006567Y016392D01*
X006530Y016429D01*
X006530Y016502D02*
X006493Y016539D01*
X006457Y016539D01*
X006420Y016502D01*
X006420Y016429D01*
X006457Y016392D01*
X005860Y016370D02*
X005860Y016223D01*
X005640Y016223D01*
X005640Y016370D01*
X005640Y016444D02*
X005640Y016591D01*
X005640Y016517D02*
X005860Y016517D01*
X005750Y016296D02*
X005750Y016223D01*
X005787Y016149D02*
X005823Y016149D01*
X005860Y016112D01*
X005860Y016039D01*
X005823Y016002D01*
X005750Y016039D02*
X005750Y016112D01*
X005787Y016149D01*
X005677Y016149D02*
X005640Y016112D01*
X005640Y016039D01*
X005677Y016002D01*
X005713Y016002D01*
X005750Y016039D01*
X005860Y015928D02*
X005860Y015781D01*
X005640Y015781D01*
X005640Y015928D01*
X005750Y015854D02*
X005750Y015781D01*
X005750Y015707D02*
X005787Y015670D01*
X005787Y015560D01*
X005860Y015560D02*
X005640Y015560D01*
X005640Y015670D01*
X005677Y015707D01*
X005750Y015707D01*
X005787Y015633D02*
X005860Y015707D01*
X005070Y015805D02*
X004850Y015805D01*
X004850Y015915D01*
X004887Y015952D01*
X004960Y015952D01*
X004997Y015915D01*
X004997Y015805D01*
X004997Y015878D02*
X005070Y015952D01*
X005033Y016026D02*
X005070Y016063D01*
X005070Y016136D01*
X005033Y016173D01*
X004997Y016173D01*
X004960Y016136D01*
X004960Y016063D01*
X004923Y016026D01*
X004887Y016026D01*
X004850Y016063D01*
X004850Y016136D01*
X004887Y016173D01*
X004887Y016247D02*
X004923Y016247D01*
X004960Y016284D01*
X004960Y016357D01*
X004997Y016394D01*
X005033Y016394D01*
X005070Y016357D01*
X005070Y016284D01*
X005033Y016247D01*
X004887Y016247D02*
X004850Y016284D01*
X004850Y016357D01*
X004887Y016394D01*
X004850Y016468D02*
X004850Y016541D01*
X004850Y016505D02*
X005070Y016505D01*
X005070Y016541D02*
X005070Y016468D01*
X004850Y015731D02*
X005070Y015584D01*
X005033Y015510D02*
X005070Y015473D01*
X005070Y015400D01*
X005033Y015363D01*
X004887Y015510D01*
X005033Y015510D01*
X004887Y015510D02*
X004850Y015473D01*
X004850Y015400D01*
X004887Y015363D01*
X005033Y015363D01*
X005070Y015289D02*
X004850Y015289D01*
X004923Y015215D01*
X004850Y015142D01*
X005070Y015142D01*
X005070Y015068D02*
X004850Y015068D01*
X004850Y014921D02*
X005070Y014921D01*
X004997Y014994D01*
X005070Y015068D01*
X004960Y014847D02*
X004997Y014810D01*
X004997Y014700D01*
X005070Y014700D02*
X004850Y014700D01*
X004850Y014810D01*
X004887Y014847D01*
X004960Y014847D01*
X004330Y015710D02*
X004110Y015710D01*
X004110Y015820D01*
X004147Y015857D01*
X004220Y015857D01*
X004257Y015820D01*
X004257Y015710D01*
X004330Y015931D02*
X004110Y015931D01*
X004110Y016078D02*
X004330Y016078D01*
X004257Y016004D01*
X004330Y015931D01*
X004330Y016152D02*
X004110Y016152D01*
X004183Y016225D01*
X004110Y016299D01*
X004330Y016299D01*
X004330Y016373D02*
X004330Y016520D01*
X004330Y016446D02*
X004110Y016446D01*
X004183Y016373D01*
X003550Y016404D02*
X003550Y016294D01*
X003513Y016257D01*
X003440Y016257D01*
X003403Y016294D01*
X003403Y016404D01*
X003330Y016404D02*
X003550Y016404D01*
X003550Y016478D02*
X003550Y016552D01*
X003330Y016552D01*
X003330Y016478D01*
X003440Y016183D02*
X003477Y016183D01*
X003477Y016036D01*
X003513Y016036D02*
X003440Y016036D01*
X003403Y016073D01*
X003403Y016147D01*
X003440Y016183D01*
X003550Y016147D02*
X003550Y016073D01*
X003513Y016036D01*
X003403Y015962D02*
X003550Y015889D01*
X003403Y015815D01*
X003403Y015741D02*
X003403Y015705D01*
X003477Y015631D01*
X003550Y015631D02*
X003403Y015631D01*
X003440Y015557D02*
X003477Y015557D01*
X003477Y015410D01*
X003513Y015410D02*
X003440Y015410D01*
X003403Y015447D01*
X003403Y015520D01*
X003440Y015557D01*
X003550Y015520D02*
X003550Y015447D01*
X003513Y015410D01*
X003513Y015336D02*
X003477Y015299D01*
X003477Y015226D01*
X003440Y015189D01*
X003403Y015226D01*
X003403Y015336D01*
X003513Y015336D02*
X003550Y015299D01*
X003550Y015189D01*
X003477Y015115D02*
X003440Y015115D01*
X003403Y015078D01*
X003403Y015005D01*
X003440Y014968D01*
X003513Y014968D01*
X003550Y015005D01*
X003550Y015078D01*
X003477Y015115D02*
X003477Y014968D01*
X003440Y014894D02*
X003477Y014857D01*
X003477Y014747D01*
X003550Y014747D02*
X003330Y014747D01*
X003330Y014857D01*
X003367Y014894D01*
X003440Y014894D01*
X003477Y014821D02*
X003550Y014894D01*
X003550Y014673D02*
X003550Y014600D01*
X003330Y014600D01*
X003330Y014673D01*
X002730Y014683D02*
X002730Y014536D01*
X002510Y014536D01*
X002510Y014683D01*
X002510Y014757D02*
X002730Y014757D01*
X002730Y014904D01*
X002730Y014978D02*
X002510Y014978D01*
X002510Y015088D01*
X002547Y015125D01*
X002620Y015125D01*
X002657Y015088D01*
X002657Y014978D01*
X002620Y014830D02*
X002620Y014757D01*
X002510Y014757D02*
X002510Y014904D01*
X002620Y014609D02*
X002620Y014536D01*
X002730Y014462D02*
X002730Y014315D01*
X002510Y014315D01*
X002547Y014241D02*
X002510Y014204D01*
X002510Y014131D01*
X002547Y014094D01*
X002583Y014094D01*
X002620Y014131D01*
X002620Y014204D01*
X002657Y014241D01*
X002693Y014241D01*
X002730Y014204D01*
X002730Y014131D01*
X002693Y014094D01*
X002510Y014020D02*
X002730Y013873D01*
X002730Y013799D02*
X002657Y013725D01*
X002657Y013762D02*
X002657Y013652D01*
X002730Y013652D02*
X002510Y013652D01*
X002510Y013762D01*
X002547Y013799D01*
X002620Y013799D01*
X002657Y013762D01*
X002510Y013578D02*
X002510Y013431D01*
X002510Y013504D02*
X002730Y013504D01*
X002693Y013357D02*
X002547Y013357D01*
X002510Y013320D01*
X002510Y013210D01*
X002730Y013210D01*
X002730Y013320D01*
X002693Y013357D01*
X002767Y015199D02*
X002767Y015346D01*
X002730Y015420D02*
X002510Y015420D01*
X002510Y015530D01*
X002547Y015567D01*
X002620Y015567D01*
X002657Y015530D01*
X002657Y015420D01*
X002657Y015493D02*
X002730Y015567D01*
X002693Y015641D02*
X002730Y015678D01*
X002730Y015751D01*
X002693Y015788D01*
X002547Y015788D01*
X002510Y015751D01*
X002510Y015678D01*
X002547Y015641D01*
X002693Y015641D01*
X002657Y015714D02*
X002730Y015788D01*
X002730Y015862D02*
X002510Y016009D01*
X002510Y016083D02*
X002510Y016193D01*
X002547Y016230D01*
X002693Y016230D01*
X002730Y016193D01*
X002730Y016083D01*
X002510Y016083D01*
X002510Y016304D02*
X002510Y016377D01*
X002510Y016341D02*
X002730Y016341D01*
X002730Y016377D02*
X002730Y016304D01*
X002693Y016451D02*
X002657Y016451D01*
X002620Y016488D01*
X002620Y016561D01*
X002657Y016598D01*
X002693Y016598D01*
X002730Y016561D01*
X002730Y016488D01*
X002693Y016451D01*
X002620Y016488D02*
X002583Y016451D01*
X002547Y016451D01*
X002510Y016488D01*
X002510Y016561D01*
X002547Y016598D01*
X002583Y016598D01*
X002620Y016561D01*
X001950Y016512D02*
X001950Y016402D01*
X001730Y016402D01*
X001730Y016512D01*
X001767Y016549D01*
X001913Y016549D01*
X001950Y016512D01*
X001950Y016328D02*
X001730Y016328D01*
X001730Y016181D02*
X001950Y016328D01*
X001950Y016181D02*
X001730Y016181D01*
X001767Y016107D02*
X001730Y016070D01*
X001730Y015997D01*
X001767Y015960D01*
X001913Y015960D01*
X001950Y015997D01*
X001950Y016070D01*
X001913Y016107D01*
X001840Y016107D01*
X001840Y016033D01*
X001273Y013842D02*
X001310Y013805D01*
X001310Y013732D01*
X001273Y013695D01*
X001310Y013621D02*
X001310Y013474D01*
X001310Y013547D02*
X001090Y013547D01*
X001163Y013474D01*
X001090Y013400D02*
X001310Y013253D01*
X001273Y013179D02*
X001310Y013142D01*
X001310Y013069D01*
X001273Y013032D01*
X001237Y013032D01*
X001200Y013069D01*
X001200Y013142D01*
X001237Y013179D01*
X001273Y013179D01*
X001200Y013142D02*
X001163Y013179D01*
X001127Y013179D01*
X001090Y013142D01*
X001090Y013069D01*
X001127Y013032D01*
X001163Y013032D01*
X001200Y013069D01*
X001090Y012958D02*
X001310Y012811D01*
X001127Y012737D02*
X001273Y012590D01*
X001310Y012590D01*
X001127Y012737D02*
X001090Y012737D01*
X001090Y012590D01*
X001127Y013695D02*
X001090Y013732D01*
X001090Y013805D01*
X001127Y013842D01*
X001163Y013842D01*
X001200Y013805D01*
X001237Y013842D01*
X001273Y013842D01*
X001200Y013805D02*
X001200Y013768D01*
X008020Y015626D02*
X008020Y015736D01*
X008057Y015773D01*
X008203Y015773D01*
X008240Y015736D01*
X008240Y015626D01*
X008020Y015626D01*
X008057Y015847D02*
X008020Y015884D01*
X008020Y015957D01*
X008057Y015994D01*
X008203Y015994D01*
X008240Y015957D01*
X008240Y015884D01*
X008203Y015847D01*
X008057Y015847D01*
X008020Y016068D02*
X008203Y016068D01*
X008240Y016105D01*
X008240Y016178D01*
X008203Y016215D01*
X008020Y016215D01*
X008020Y016289D02*
X008020Y016436D01*
X008020Y016362D02*
X008240Y016362D01*
X008870Y016372D02*
X009017Y016372D01*
X009090Y016446D01*
X009017Y016519D01*
X008870Y016519D01*
X008907Y016298D02*
X008870Y016262D01*
X008870Y016188D01*
X008907Y016151D01*
X008980Y016225D02*
X008980Y016262D01*
X009017Y016298D01*
X009053Y016298D01*
X009090Y016262D01*
X009090Y016188D01*
X009053Y016151D01*
X009053Y016078D02*
X009090Y016078D01*
X009090Y016041D01*
X009053Y016041D01*
X009053Y016078D01*
X009053Y015967D02*
X009090Y015930D01*
X009090Y015857D01*
X009053Y015820D01*
X008980Y015893D02*
X008980Y015930D01*
X009017Y015967D01*
X009053Y015967D01*
X008980Y015930D02*
X008943Y015967D01*
X008907Y015967D01*
X008870Y015930D01*
X008870Y015857D01*
X008907Y015820D01*
X008980Y016262D02*
X008943Y016298D01*
X008907Y016298D01*
D11*
X008412Y019172D02*
X008502Y019262D01*
X008231Y019262D01*
X008231Y019172D02*
X008231Y019352D01*
X008276Y019467D02*
X008231Y019512D01*
X008231Y019602D01*
X008276Y019647D01*
X008457Y019647D01*
X008276Y019467D01*
X008457Y019467D01*
X008502Y019512D01*
X008502Y019602D01*
X008457Y019647D01*
X008412Y019761D02*
X008276Y019761D01*
X008231Y019806D01*
X008231Y019942D01*
X008412Y019942D01*
X008367Y020056D02*
X008367Y020146D01*
X008502Y020056D02*
X008231Y020056D01*
X008502Y020056D02*
X008502Y020236D01*
X010649Y018777D02*
X010829Y018777D01*
X010829Y018507D01*
X010944Y018507D02*
X010944Y018687D01*
X010829Y018642D02*
X010739Y018642D01*
X010944Y018507D02*
X011079Y018507D01*
X011124Y018552D01*
X011124Y018687D01*
X011239Y018507D02*
X011419Y018507D01*
X011329Y018507D02*
X011329Y018777D01*
X011419Y018687D01*
X011533Y018732D02*
X011533Y018552D01*
X011578Y018507D01*
X011668Y018507D01*
X011713Y018552D01*
X011533Y018732D01*
X011578Y018777D01*
X011668Y018777D01*
X011713Y018732D01*
X011713Y018552D01*
X011816Y018552D02*
X011816Y018507D01*
X011861Y018507D01*
X011861Y018552D01*
X011816Y018552D01*
X005937Y003565D02*
X005937Y003115D01*
X005787Y003115D02*
X006087Y003115D01*
X005787Y003415D02*
X005937Y003565D01*
X005627Y003490D02*
X005627Y003190D01*
X005552Y003115D01*
X005402Y003115D01*
X005327Y003190D01*
X005627Y003490D01*
X005552Y003565D01*
X005402Y003565D01*
X005327Y003490D01*
X005327Y003190D01*
X005166Y003115D02*
X004866Y003115D01*
X005016Y003115D02*
X005016Y003565D01*
X004866Y003415D01*
X004706Y003565D02*
X004406Y003565D01*
X004556Y003565D02*
X004556Y003115D01*
X004246Y003340D02*
X004246Y003490D01*
X004171Y003565D01*
X003945Y003565D01*
X003945Y003115D01*
X003945Y003265D02*
X004171Y003265D01*
X004246Y003340D01*
X003785Y003190D02*
X003785Y003490D01*
X003710Y003565D01*
X003560Y003565D01*
X003485Y003490D01*
X003485Y003190D01*
X003560Y003115D01*
X003710Y003115D01*
X003785Y003190D01*
D12*
X004770Y005427D02*
X004770Y005797D01*
X004523Y005797D01*
X004646Y005612D02*
X004770Y005612D01*
X004891Y005674D02*
X004891Y005427D01*
X005076Y005427D01*
X005138Y005489D01*
X005138Y005674D01*
X005259Y005427D02*
X005506Y005427D01*
X005383Y005427D02*
X005383Y005797D01*
X005506Y005674D01*
X005628Y005736D02*
X005875Y005489D01*
X005813Y005427D01*
X005689Y005427D01*
X005628Y005489D01*
X005628Y005736D01*
X005689Y005797D01*
X005813Y005797D01*
X005875Y005736D01*
X005875Y005489D01*
X005997Y005489D02*
X005997Y005427D01*
X006059Y005427D01*
X006059Y005489D01*
X005997Y005489D01*
D13*
X001027Y003557D02*
X000720Y003250D01*
X000720Y003557D01*
X000797Y003710D02*
X000720Y003787D01*
X000720Y003941D01*
X000797Y004017D01*
X001104Y004017D01*
X000797Y003710D01*
X001104Y003710D01*
X001180Y003787D01*
X001180Y003941D01*
X001104Y004017D01*
X001104Y004171D02*
X001180Y004248D01*
X001180Y004401D01*
X001104Y004478D01*
X000797Y004171D01*
X000720Y004248D01*
X000720Y004401D01*
X000797Y004478D01*
X001104Y004478D01*
X001180Y004631D02*
X000720Y004631D01*
X000873Y004631D02*
X000720Y004861D01*
X000873Y004631D02*
X001027Y004861D01*
X001104Y004171D02*
X000797Y004171D01*
X001027Y003557D02*
X001104Y003557D01*
X001180Y003480D01*
X001180Y003327D01*
X001104Y003250D01*
X007849Y006610D02*
X008079Y006763D01*
X007849Y006917D01*
X008079Y007070D02*
X008079Y006610D01*
X008233Y006687D02*
X008233Y006763D01*
X008309Y006840D01*
X008540Y006840D01*
X008540Y006687D01*
X008463Y006610D01*
X008309Y006610D01*
X008233Y006687D01*
X008386Y006994D02*
X008540Y006840D01*
X008693Y006840D02*
X008923Y006840D01*
X009000Y006917D01*
X009000Y006994D01*
X008923Y007070D01*
X008770Y007070D01*
X008693Y006994D01*
X008693Y006687D01*
X008770Y006610D01*
X008923Y006610D01*
X009000Y006687D01*
X008386Y006994D02*
X008233Y007070D01*
D14*
X008146Y020807D02*
X007523Y020807D01*
X007523Y021520D01*
X004768Y021520D01*
X004768Y020807D01*
X004246Y020807D01*
X004244Y020807D02*
X004146Y020807D01*
X004146Y021437D01*
X004246Y021437D01*
X004246Y023882D02*
X004964Y024709D01*
X007327Y024709D01*
X008045Y023843D01*
X008045Y021437D02*
X008146Y021437D01*
X008146Y020807D01*
X006382Y023843D02*
X006382Y024079D01*
X005909Y024079D01*
X005909Y023843D01*
X006382Y023843D01*
X006382Y024079D02*
X006382Y024473D01*
X005909Y024473D01*
X005909Y024079D01*
M02*
