G75*
G70*
%OFA0B0*%
%FSLAX24Y24*%
%IPPOS*%
%LPD*%
%AMOC8*
5,1,8,0,0,1.08239X$1,22.5*
%
%ADD10R,0.0867X0.0671*%
%ADD11R,0.0710X0.0592*%
%ADD12C,0.0640*%
%ADD13R,0.0592X0.0710*%
%ADD14R,0.0680X0.0680*%
%ADD15C,0.0680*%
%ADD16R,0.0434X0.0395*%
%ADD17R,0.0592X0.0671*%
%ADD18R,0.2245X0.0474*%
%ADD19R,0.1261X0.0710*%
%ADD20R,0.2245X0.0552*%
%ADD21R,0.0671X0.0592*%
%ADD22R,0.0580X0.1230*%
%ADD23C,0.1429*%
%ADD24C,0.1740*%
%ADD25C,0.0780*%
%ADD26C,0.0634*%
D10*
X009060Y018998D03*
X009060Y020179D03*
D11*
X010579Y019990D03*
X010579Y019203D03*
D12*
X006250Y004760D02*
X006250Y004200D01*
X005250Y004200D02*
X005250Y004760D01*
X004250Y004760D02*
X004250Y004200D01*
X003250Y004200D02*
X003250Y004760D01*
X003250Y001760D02*
X003250Y001200D01*
X004250Y001200D02*
X004250Y001760D01*
X005250Y001760D02*
X005250Y001200D01*
X006250Y001200D02*
X006250Y001760D01*
D13*
X006254Y006200D03*
X005466Y006200D03*
D14*
X001815Y008528D03*
X001815Y017189D03*
D15*
X002602Y017189D03*
X003390Y017189D03*
X004177Y017189D03*
X004964Y017189D03*
X005752Y017189D03*
X006539Y017189D03*
X007327Y017189D03*
X008114Y017189D03*
X008901Y017189D03*
X008901Y008528D03*
X008114Y008528D03*
X007327Y008528D03*
X006539Y008528D03*
X005752Y008528D03*
X004964Y008528D03*
X004177Y008528D03*
X003390Y008528D03*
X002602Y008528D03*
D16*
X006036Y009486D03*
X006036Y010234D03*
X005996Y011466D03*
X005996Y012214D03*
X005976Y013646D03*
X005976Y014394D03*
X005936Y015566D03*
X005936Y016314D03*
X006724Y015940D03*
X006764Y014020D03*
X006784Y011840D03*
X006824Y009860D03*
X010566Y006054D03*
X010566Y005306D03*
X011354Y005680D03*
D17*
X008895Y006160D03*
X008225Y006160D03*
X010850Y011784D03*
X010850Y012610D03*
X010850Y013437D03*
X010850Y014264D03*
X011520Y014264D03*
X011520Y013437D03*
X011520Y012610D03*
X011520Y011784D03*
X001559Y011756D03*
X001559Y012583D03*
X001559Y013410D03*
X001559Y014236D03*
X000890Y014236D03*
X000890Y013410D03*
X000890Y012583D03*
X000890Y011756D03*
D18*
X004052Y011831D03*
X004052Y012619D03*
X004052Y013406D03*
X004052Y014193D03*
X009216Y014193D03*
X009216Y013406D03*
X009216Y012619D03*
X009216Y011831D03*
D19*
X008429Y010886D03*
X008429Y015138D03*
X003264Y015138D03*
X001784Y018346D03*
X001784Y021024D03*
X003264Y010886D03*
X007994Y004644D03*
X007994Y001966D03*
D20*
X008880Y002911D03*
X008880Y003699D03*
X002670Y019291D03*
X002670Y020079D03*
D21*
X001690Y004375D03*
X001690Y003705D03*
X010570Y003875D03*
X010570Y003205D03*
X011480Y003885D03*
X011480Y004555D03*
D22*
X006736Y018921D03*
X006736Y020744D03*
X005555Y020744D03*
X005555Y018921D03*
D23*
X004709Y022898D03*
X007583Y022898D03*
D24*
X001815Y001835D03*
X010476Y001835D03*
X010476Y022307D03*
X001815Y022307D03*
D25*
X010000Y008600D03*
X011350Y006660D03*
X011600Y008580D03*
D26*
X009780Y007330D03*
X010890Y017130D03*
M02*
