%
M48
M72
T01C0.0200
T02C0.0236
T03C0.0315
T04C0.0400
T05C0.0949
T06C0.1260
%
T01
X2180Y7337
X5180Y6337
X6180Y8137
X6180Y11337
X9980Y11337
T02
X5780Y18877
X5550Y18127
X3394Y17539
X2990Y20537
X1240Y18057
X830Y18927
T03
X3242Y13689
X4030Y13689
X4817Y13689
X5605Y13689
X6392Y13689
X7179Y13689
X7967Y13689
X8754Y13689
X9542Y13689
X10329Y13689
X10329Y5028
X9542Y5028
X8754Y5028
X7967Y5028
X7179Y5028
X6392Y5028
X5605Y5028
X4817Y5028
X4030Y5028
X3242Y5028
T04
X3290Y3497
X4290Y3597
X5290Y3497
X6290Y3597
X7290Y3497
X7660Y1097
X6660Y997
X5660Y1097
X4660Y997
X3660Y1097
X8660Y997
X4710Y19517
X3710Y19617
X2710Y19517
X1710Y19617
T05
X5903Y22797
X8777Y22797
T06
X1755Y1711
X10416Y1711
X10416Y22184
X1755Y22184
M30
