G75*
G70*
%OFA0B0*%
%FSLAX24Y24*%
%IPPOS*%
%LPD*%
%AMOC8*
5,1,8,0,0,1.08239X$1,22.5*
%
%ADD10R,0.0555X0.0555*%
%ADD11C,0.0555*%
%ADD12R,0.0740X0.0740*%
%ADD13C,0.0740*%
%ADD14C,0.0436*%
%ADD15C,0.0160*%
%ADD16C,0.1660*%
%ADD17C,0.0100*%
%ADD18C,0.0400*%
D10*
X003232Y005028D03*
X003232Y013689D03*
D11*
X004020Y013689D03*
X004807Y013689D03*
X005595Y013689D03*
X006382Y013689D03*
X007169Y013689D03*
X007957Y013689D03*
X008744Y013689D03*
X009532Y013689D03*
X010319Y013689D03*
X010319Y005028D03*
X009532Y005028D03*
X008744Y005028D03*
X007957Y005028D03*
X007169Y005028D03*
X006382Y005028D03*
X005595Y005028D03*
X004807Y005028D03*
X004020Y005028D03*
D12*
X004700Y019517D03*
D13*
X003700Y019617D03*
X002700Y019517D03*
X001700Y019617D03*
X003280Y003497D03*
X004280Y003597D03*
X005280Y003497D03*
X006280Y003597D03*
X007280Y003497D03*
X007650Y001097D03*
X006650Y000997D03*
X005650Y001097D03*
X004650Y000997D03*
X003650Y001097D03*
X008650Y000997D03*
D14*
X003384Y017539D03*
X002980Y020537D03*
X001230Y018057D03*
X000820Y018927D03*
X005540Y018127D03*
X005770Y018877D03*
D15*
X005640Y018747D01*
X001210Y018747D01*
X001030Y018927D01*
X000820Y018927D01*
X001230Y018057D02*
X001560Y018127D01*
X005540Y018127D01*
X007370Y018537D02*
X005370Y020537D01*
X002980Y020537D01*
X003384Y017539D02*
X003386Y017537D01*
X003386Y016937D01*
X007370Y016937D01*
X007370Y018537D01*
D16*
X010406Y022184D03*
X001745Y022184D03*
X001745Y001711D03*
X010406Y001711D03*
D17*
X011820Y000327D02*
X000320Y000317D01*
X000320Y023607D01*
X011820Y023607D01*
X011820Y000327D01*
X011820Y000334D02*
X000320Y000334D01*
X000320Y000432D02*
X011820Y000432D01*
X011820Y000531D02*
X008884Y000531D01*
X008945Y000556D02*
X008753Y000477D01*
X008547Y000477D01*
X008355Y000556D01*
X008209Y000702D01*
X008130Y000893D01*
X008130Y000897D01*
X008091Y000802D01*
X007945Y000656D01*
X007753Y000577D01*
X007547Y000577D01*
X007355Y000656D01*
X007209Y000802D01*
X007170Y000897D01*
X007170Y000893D01*
X007091Y000702D01*
X006945Y000556D01*
X006753Y000477D01*
X006547Y000477D01*
X006355Y000556D01*
X006209Y000702D01*
X006130Y000893D01*
X006130Y000897D01*
X006091Y000802D01*
X005945Y000656D01*
X005753Y000577D01*
X005547Y000577D01*
X005355Y000656D01*
X005209Y000802D01*
X005170Y000897D01*
X005170Y000893D01*
X005091Y000702D01*
X004945Y000556D01*
X004753Y000477D01*
X004547Y000477D01*
X004355Y000556D01*
X004209Y000702D01*
X004130Y000893D01*
X004130Y000897D01*
X004091Y000802D01*
X003945Y000656D01*
X003753Y000577D01*
X003547Y000577D01*
X003355Y000656D01*
X003209Y000802D01*
X003130Y000993D01*
X003130Y001200D01*
X003209Y001391D01*
X003221Y001403D01*
X002725Y001899D01*
X002725Y001517D01*
X002576Y001156D01*
X002300Y000881D01*
X001940Y000732D01*
X001550Y000732D01*
X001190Y000881D01*
X000914Y001156D01*
X000765Y001517D01*
X000765Y001906D01*
X000914Y002267D01*
X001190Y002542D01*
X001550Y002691D01*
X001940Y002691D01*
X001970Y002679D01*
X001970Y005620D01*
X002087Y005737D01*
X003487Y007137D01*
X005087Y007137D01*
X005420Y007470D01*
X005420Y007606D01*
X005473Y007735D01*
X005572Y007833D01*
X005700Y007887D01*
X005840Y007887D01*
X005968Y007833D01*
X006067Y007735D01*
X006120Y007606D01*
X006120Y007467D01*
X006067Y007338D01*
X005968Y007240D01*
X005840Y007187D01*
X005703Y007187D01*
X005370Y006854D01*
X005355Y006839D01*
X005368Y006833D01*
X005467Y006735D01*
X005520Y006606D01*
X005520Y006467D01*
X005467Y006338D01*
X005368Y006240D01*
X005240Y006187D01*
X005103Y006187D01*
X004570Y005654D01*
X004453Y005537D01*
X003253Y005537D01*
X003172Y005455D01*
X003572Y005455D01*
X003660Y005368D01*
X003660Y005273D01*
X003778Y005390D01*
X003935Y005455D01*
X004105Y005455D01*
X004262Y005390D01*
X004382Y005270D01*
X004413Y005195D01*
X004445Y005270D01*
X004565Y005390D01*
X004722Y005455D01*
X004892Y005455D01*
X005049Y005390D01*
X005170Y005270D01*
X005201Y005195D01*
X005232Y005270D01*
X005352Y005390D01*
X005510Y005455D01*
X005680Y005455D01*
X005837Y005390D01*
X005957Y005270D01*
X005988Y005195D01*
X006020Y005270D01*
X006140Y005390D01*
X006297Y005455D01*
X006467Y005455D01*
X006624Y005390D01*
X006744Y005270D01*
X006776Y005195D01*
X006807Y005270D01*
X006927Y005390D01*
X007084Y005455D01*
X007254Y005455D01*
X007412Y005390D01*
X007532Y005270D01*
X007563Y005195D01*
X007594Y005270D01*
X007715Y005390D01*
X007872Y005455D01*
X008042Y005455D01*
X008199Y005390D01*
X008319Y005270D01*
X008350Y005195D01*
X008382Y005270D01*
X008502Y005390D01*
X008659Y005455D01*
X008829Y005455D01*
X008986Y005390D01*
X009107Y005270D01*
X009138Y005195D01*
X009169Y005270D01*
X009289Y005390D01*
X009447Y005455D01*
X009617Y005455D01*
X009774Y005390D01*
X009894Y005270D01*
X009925Y005196D01*
X009953Y005252D01*
X009993Y005306D01*
X010040Y005354D01*
X010095Y005394D01*
X010155Y005424D01*
X010219Y005445D01*
X010285Y005455D01*
X010290Y005455D01*
X010290Y005057D01*
X010348Y005057D01*
X010746Y005057D01*
X010746Y005062D01*
X010970Y005062D01*
X010970Y005160D02*
X010726Y005160D01*
X010736Y005128D02*
X010715Y005192D01*
X010685Y005252D01*
X010645Y005306D01*
X010597Y005354D01*
X010543Y005394D01*
X010483Y005424D01*
X010419Y005445D01*
X010353Y005455D01*
X010348Y005455D01*
X010348Y005057D01*
X010348Y004999D01*
X010746Y004999D01*
X010746Y004994D01*
X010736Y004928D01*
X010715Y004864D01*
X010685Y004804D01*
X010645Y004750D01*
X010597Y004702D01*
X010543Y004662D01*
X010483Y004632D01*
X010419Y004611D01*
X010353Y004601D01*
X010348Y004601D01*
X010348Y004999D01*
X010290Y004999D01*
X010290Y004601D01*
X010285Y004601D01*
X010219Y004611D01*
X010155Y004632D01*
X010095Y004662D01*
X010040Y004702D01*
X009993Y004750D01*
X009953Y004804D01*
X009925Y004860D01*
X009894Y004786D01*
X009774Y004666D01*
X009617Y004601D01*
X009447Y004601D01*
X009289Y004666D01*
X009169Y004786D01*
X009138Y004861D01*
X009107Y004786D01*
X008986Y004666D01*
X008829Y004601D01*
X008659Y004601D01*
X008502Y004666D01*
X008382Y004786D01*
X008350Y004861D01*
X008319Y004786D01*
X008199Y004666D01*
X008042Y004601D01*
X007872Y004601D01*
X007715Y004666D01*
X007594Y004786D01*
X007563Y004861D01*
X007532Y004786D01*
X007412Y004666D01*
X007254Y004601D01*
X007084Y004601D01*
X006927Y004666D01*
X006807Y004786D01*
X006776Y004861D01*
X006744Y004786D01*
X006624Y004666D01*
X006467Y004601D01*
X006297Y004601D01*
X006140Y004666D01*
X006020Y004786D01*
X005988Y004861D01*
X005957Y004786D01*
X005837Y004666D01*
X005680Y004601D01*
X005510Y004601D01*
X005352Y004666D01*
X005232Y004786D01*
X005201Y004861D01*
X005170Y004786D01*
X005049Y004666D01*
X004892Y004601D01*
X004722Y004601D01*
X004565Y004666D01*
X004445Y004786D01*
X004413Y004861D01*
X004382Y004786D01*
X004262Y004666D01*
X004105Y004601D01*
X003935Y004601D01*
X003778Y004666D01*
X003660Y004783D01*
X003660Y004688D01*
X003572Y004601D01*
X002893Y004601D01*
X002805Y004688D01*
X002805Y005089D01*
X002570Y004854D01*
X002570Y003137D01*
X002653Y003137D01*
X003653Y002137D01*
X004053Y002137D01*
X004673Y001517D01*
X004753Y001517D01*
X004945Y001438D01*
X005091Y001291D01*
X005130Y001197D01*
X005130Y001200D01*
X005209Y001391D01*
X005355Y001538D01*
X005547Y001617D01*
X005753Y001617D01*
X005763Y001613D01*
X006087Y001937D01*
X006687Y001937D01*
X007887Y003137D01*
X010970Y003137D01*
X010970Y005254D01*
X006037Y010187D01*
X005900Y010187D01*
X005772Y010240D01*
X005673Y010338D01*
X005620Y010467D01*
X005620Y010606D01*
X005673Y010735D01*
X005772Y010833D01*
X005900Y010887D01*
X006040Y010887D01*
X006168Y010833D01*
X006267Y010735D01*
X006320Y010606D01*
X006320Y010470D01*
X011253Y005537D01*
X011253Y005537D01*
X011370Y005420D01*
X011370Y002854D01*
X011253Y002737D01*
X008053Y002737D01*
X006970Y001654D01*
X006853Y001537D01*
X006253Y001537D01*
X006096Y001380D01*
X006170Y001200D01*
X006170Y001197D01*
X006209Y001291D01*
X006355Y001438D01*
X006547Y001517D01*
X006753Y001517D01*
X006945Y001438D01*
X007091Y001291D01*
X007130Y001197D01*
X007130Y001200D01*
X007209Y001391D01*
X007355Y001538D01*
X007547Y001617D01*
X007753Y001617D01*
X007945Y001538D01*
X008091Y001391D01*
X008170Y001200D01*
X008170Y001197D01*
X008209Y001291D01*
X008355Y001438D01*
X008547Y001517D01*
X008753Y001517D01*
X008945Y001438D01*
X009091Y001291D01*
X009170Y001100D01*
X009170Y000893D01*
X009091Y000702D01*
X008945Y000556D01*
X009018Y000629D02*
X011820Y000629D01*
X011820Y000728D02*
X009101Y000728D01*
X009142Y000826D02*
X009983Y000826D01*
X009851Y000881D02*
X010211Y000732D01*
X010601Y000732D01*
X010961Y000881D01*
X011237Y001156D01*
X011386Y001517D01*
X011386Y001906D01*
X011237Y002267D01*
X010961Y002542D01*
X010601Y002691D01*
X010211Y002691D01*
X009851Y002542D01*
X009575Y002267D01*
X009426Y001906D01*
X009426Y001517D01*
X009575Y001156D01*
X009851Y000881D01*
X009807Y000925D02*
X009170Y000925D01*
X009170Y001023D02*
X009709Y001023D01*
X009610Y001122D02*
X009161Y001122D01*
X009120Y001220D02*
X009549Y001220D01*
X009508Y001319D02*
X009063Y001319D01*
X008965Y001417D02*
X009467Y001417D01*
X009427Y001516D02*
X008756Y001516D01*
X008544Y001516D02*
X007966Y001516D01*
X008065Y001417D02*
X008335Y001417D01*
X008237Y001319D02*
X008121Y001319D01*
X008162Y001220D02*
X008180Y001220D01*
X008158Y000826D02*
X008101Y000826D01*
X008016Y000728D02*
X008199Y000728D01*
X008282Y000629D02*
X007880Y000629D01*
X007420Y000629D02*
X007018Y000629D01*
X007101Y000728D02*
X007284Y000728D01*
X007199Y000826D02*
X007142Y000826D01*
X007120Y001220D02*
X007138Y001220D01*
X007179Y001319D02*
X007063Y001319D01*
X006965Y001417D02*
X007235Y001417D01*
X007334Y001516D02*
X006756Y001516D01*
X006930Y001614D02*
X007541Y001614D01*
X007759Y001614D02*
X009426Y001614D01*
X009426Y001713D02*
X007029Y001713D01*
X007127Y001811D02*
X009426Y001811D01*
X009428Y001910D02*
X007226Y001910D01*
X007324Y002008D02*
X009468Y002008D01*
X009509Y002107D02*
X007423Y002107D01*
X007521Y002205D02*
X009550Y002205D01*
X009613Y002304D02*
X007620Y002304D01*
X007718Y002402D02*
X009711Y002402D01*
X009810Y002501D02*
X007817Y002501D01*
X007915Y002599D02*
X009989Y002599D01*
X010824Y002599D02*
X011820Y002599D01*
X011820Y002501D02*
X011003Y002501D01*
X011101Y002402D02*
X011820Y002402D01*
X011820Y002304D02*
X011200Y002304D01*
X011262Y002205D02*
X011820Y002205D01*
X011820Y002107D02*
X011303Y002107D01*
X011344Y002008D02*
X011820Y002008D01*
X011820Y001910D02*
X011385Y001910D01*
X011386Y001811D02*
X011820Y001811D01*
X011820Y001713D02*
X011386Y001713D01*
X011386Y001614D02*
X011820Y001614D01*
X011820Y001516D02*
X011386Y001516D01*
X011345Y001417D02*
X011820Y001417D01*
X011820Y001319D02*
X011304Y001319D01*
X011263Y001220D02*
X011820Y001220D01*
X011820Y001122D02*
X011202Y001122D01*
X011104Y001023D02*
X011820Y001023D01*
X011820Y000925D02*
X011005Y000925D01*
X010830Y000826D02*
X011820Y000826D01*
X011820Y002698D02*
X008014Y002698D01*
X007970Y002937D02*
X006770Y001737D01*
X006170Y001737D01*
X005570Y001137D01*
X005650Y001097D01*
X005880Y000629D02*
X006282Y000629D01*
X006199Y000728D02*
X006016Y000728D01*
X006101Y000826D02*
X006158Y000826D01*
X006162Y001220D02*
X006180Y001220D01*
X006237Y001319D02*
X006121Y001319D01*
X006133Y001417D02*
X006335Y001417D01*
X006232Y001516D02*
X006544Y001516D01*
X006759Y002008D02*
X004181Y002008D01*
X004083Y002107D02*
X006857Y002107D01*
X006956Y002205D02*
X003584Y002205D01*
X003486Y002304D02*
X007054Y002304D01*
X007153Y002402D02*
X003387Y002402D01*
X003289Y002501D02*
X007251Y002501D01*
X007350Y002599D02*
X003190Y002599D01*
X003092Y002698D02*
X007448Y002698D01*
X007547Y002796D02*
X002993Y002796D01*
X002895Y002895D02*
X007645Y002895D01*
X007744Y002993D02*
X007413Y002993D01*
X007402Y002989D02*
X007480Y003015D01*
X007553Y003052D01*
X007619Y003100D01*
X007677Y003158D01*
X007725Y003224D01*
X007762Y003297D01*
X007787Y003375D01*
X007799Y003447D01*
X007330Y003447D01*
X007330Y003547D01*
X007230Y003547D01*
X007230Y004015D01*
X007158Y004004D01*
X007080Y003979D01*
X007007Y003941D01*
X006941Y003893D01*
X006883Y003835D01*
X006835Y003769D01*
X006800Y003700D01*
X006800Y003700D01*
X006721Y003891D01*
X006575Y004038D01*
X006383Y004117D01*
X006177Y004117D01*
X005985Y004038D01*
X005839Y003891D01*
X005760Y003700D01*
X005760Y003697D01*
X005721Y003791D01*
X005575Y003938D01*
X005383Y004017D01*
X005177Y004017D01*
X004985Y003938D01*
X004839Y003791D01*
X004800Y003697D01*
X004800Y003700D01*
X004721Y003891D01*
X004575Y004038D01*
X004383Y004117D01*
X004177Y004117D01*
X003985Y004038D01*
X003839Y003891D01*
X003760Y003700D01*
X003760Y003697D01*
X003721Y003791D01*
X003575Y003938D01*
X003383Y004017D01*
X003177Y004017D01*
X002985Y003938D01*
X002839Y003791D01*
X002760Y003600D01*
X002760Y003393D01*
X002839Y003202D01*
X002985Y003056D01*
X003177Y002977D01*
X003383Y002977D01*
X003575Y003056D01*
X003721Y003202D01*
X003800Y003393D01*
X003800Y003397D01*
X003839Y003302D01*
X003985Y003156D01*
X004177Y003077D01*
X004383Y003077D01*
X004575Y003156D01*
X004721Y003302D01*
X004760Y003397D01*
X004760Y003393D01*
X004839Y003202D01*
X004985Y003056D01*
X005177Y002977D01*
X005383Y002977D01*
X005575Y003056D01*
X005721Y003202D01*
X005800Y003393D01*
X005800Y003397D01*
X005839Y003302D01*
X005985Y003156D01*
X006177Y003077D01*
X006383Y003077D01*
X006575Y003156D01*
X006721Y003302D01*
X006767Y003413D01*
X006773Y003375D01*
X006798Y003297D01*
X006835Y003224D01*
X006883Y003158D01*
X006941Y003100D01*
X007007Y003052D01*
X007080Y003015D01*
X007158Y002989D01*
X007230Y002978D01*
X007230Y003447D01*
X007330Y003447D01*
X007330Y002978D01*
X007402Y002989D01*
X007330Y002993D02*
X007230Y002993D01*
X007147Y002993D02*
X005423Y002993D01*
X005610Y003092D02*
X006140Y003092D01*
X005951Y003190D02*
X005709Y003190D01*
X005757Y003289D02*
X005853Y003289D01*
X005804Y003387D02*
X005797Y003387D01*
X005794Y003781D02*
X005725Y003781D01*
X005632Y003880D02*
X005834Y003880D01*
X005926Y003978D02*
X005476Y003978D01*
X005350Y004668D02*
X005051Y004668D01*
X005150Y004766D02*
X005252Y004766D01*
X005227Y005259D02*
X005174Y005259D01*
X005083Y005357D02*
X005319Y005357D01*
X004963Y006047D02*
X010177Y006047D01*
X010079Y006145D02*
X005061Y006145D01*
X004864Y005948D02*
X010276Y005948D01*
X010374Y005850D02*
X004766Y005850D01*
X004667Y005751D02*
X010473Y005751D01*
X010571Y005653D02*
X004569Y005653D01*
X004470Y005554D02*
X010670Y005554D01*
X010768Y005456D02*
X003172Y005456D01*
X003170Y005737D02*
X002370Y004937D01*
X002370Y002937D01*
X002570Y002937D01*
X003570Y001937D01*
X003970Y001937D01*
X004770Y001137D01*
X004650Y000997D01*
X004416Y000531D02*
X000320Y000531D01*
X000320Y000629D02*
X003420Y000629D01*
X003284Y000728D02*
X000320Y000728D01*
X000320Y000826D02*
X001321Y000826D01*
X001146Y000925D02*
X000320Y000925D01*
X000320Y001023D02*
X001047Y001023D01*
X000949Y001122D02*
X000320Y001122D01*
X000320Y001220D02*
X000888Y001220D01*
X000847Y001319D02*
X000320Y001319D01*
X000320Y001417D02*
X000806Y001417D01*
X000765Y001516D02*
X000320Y001516D01*
X000320Y001614D02*
X000765Y001614D01*
X000765Y001713D02*
X000320Y001713D01*
X000320Y001811D02*
X000765Y001811D01*
X000766Y001910D02*
X000320Y001910D01*
X000320Y002008D02*
X000807Y002008D01*
X000848Y002107D02*
X000320Y002107D01*
X000320Y002205D02*
X000889Y002205D01*
X000951Y002304D02*
X000320Y002304D01*
X000320Y002402D02*
X001050Y002402D01*
X001148Y002501D02*
X000320Y002501D01*
X000320Y002599D02*
X001327Y002599D01*
X001970Y002698D02*
X000320Y002698D01*
X000320Y002796D02*
X001970Y002796D01*
X001970Y002895D02*
X000320Y002895D01*
X000320Y002993D02*
X001970Y002993D01*
X001970Y003092D02*
X000320Y003092D01*
X000320Y003190D02*
X001970Y003190D01*
X001970Y003289D02*
X000320Y003289D01*
X000320Y003387D02*
X001970Y003387D01*
X001970Y003486D02*
X000320Y003486D01*
X000320Y003584D02*
X001970Y003584D01*
X001970Y003683D02*
X000320Y003683D01*
X000320Y003781D02*
X001970Y003781D01*
X001970Y003880D02*
X000320Y003880D01*
X000320Y003978D02*
X001970Y003978D01*
X001970Y004077D02*
X000320Y004077D01*
X000320Y004175D02*
X001970Y004175D01*
X001970Y004274D02*
X000320Y004274D01*
X000320Y004372D02*
X001970Y004372D01*
X001970Y004471D02*
X000320Y004471D01*
X000320Y004569D02*
X001970Y004569D01*
X001970Y004668D02*
X000320Y004668D01*
X000320Y004766D02*
X001970Y004766D01*
X001970Y004865D02*
X000320Y004865D01*
X000320Y004963D02*
X001970Y004963D01*
X001970Y005062D02*
X000320Y005062D01*
X000320Y005160D02*
X001970Y005160D01*
X001970Y005259D02*
X000320Y005259D01*
X000320Y005357D02*
X001970Y005357D01*
X001970Y005456D02*
X000320Y005456D01*
X000320Y005554D02*
X001970Y005554D01*
X002003Y005653D02*
X000320Y005653D01*
X000320Y005751D02*
X002102Y005751D01*
X002200Y005850D02*
X000320Y005850D01*
X000320Y005948D02*
X002299Y005948D01*
X002397Y006047D02*
X000320Y006047D01*
X000320Y006145D02*
X002496Y006145D01*
X002594Y006244D02*
X000320Y006244D01*
X000320Y006342D02*
X002693Y006342D01*
X002791Y006441D02*
X000320Y006441D01*
X000320Y006539D02*
X002890Y006539D01*
X002988Y006638D02*
X000320Y006638D01*
X000320Y006736D02*
X003087Y006736D01*
X003185Y006835D02*
X000320Y006835D01*
X000320Y006933D02*
X003284Y006933D01*
X003382Y007032D02*
X000320Y007032D01*
X000320Y007130D02*
X003481Y007130D01*
X003570Y006937D02*
X002170Y005537D01*
X002170Y002737D01*
X003770Y001137D01*
X003650Y001097D01*
X003880Y000629D02*
X004282Y000629D01*
X004199Y000728D02*
X004016Y000728D01*
X004101Y000826D02*
X004158Y000826D01*
X004575Y001614D02*
X005541Y001614D01*
X005759Y001614D02*
X005765Y001614D01*
X005863Y001713D02*
X004477Y001713D01*
X004378Y001811D02*
X005962Y001811D01*
X006060Y001910D02*
X004280Y001910D01*
X004756Y001516D02*
X005334Y001516D01*
X005235Y001417D02*
X004965Y001417D01*
X005063Y001319D02*
X005179Y001319D01*
X005138Y001220D02*
X005120Y001220D01*
X005142Y000826D02*
X005199Y000826D01*
X005284Y000728D02*
X005101Y000728D01*
X005018Y000629D02*
X005420Y000629D01*
X004884Y000531D02*
X006416Y000531D01*
X006884Y000531D02*
X008416Y000531D01*
X007970Y002937D02*
X011170Y002937D01*
X011170Y005337D01*
X005970Y010537D01*
X005868Y010873D02*
X000320Y010873D01*
X000320Y010775D02*
X005713Y010775D01*
X005649Y010676D02*
X000320Y010676D01*
X000320Y010578D02*
X005620Y010578D01*
X005620Y010479D02*
X000320Y010479D01*
X000320Y010381D02*
X005656Y010381D01*
X005729Y010282D02*
X000320Y010282D01*
X000320Y010184D02*
X006040Y010184D01*
X006139Y010085D02*
X000320Y010085D01*
X000320Y009987D02*
X006237Y009987D01*
X006336Y009888D02*
X000320Y009888D01*
X000320Y009790D02*
X006434Y009790D01*
X006533Y009691D02*
X000320Y009691D01*
X000320Y009593D02*
X006631Y009593D01*
X006730Y009494D02*
X000320Y009494D01*
X000320Y009396D02*
X006828Y009396D01*
X006927Y009297D02*
X000320Y009297D01*
X000320Y009199D02*
X007025Y009199D01*
X007124Y009100D02*
X000320Y009100D01*
X000320Y009002D02*
X007222Y009002D01*
X007321Y008903D02*
X000320Y008903D01*
X000320Y008805D02*
X007419Y008805D01*
X007518Y008706D02*
X000320Y008706D01*
X000320Y008608D02*
X007616Y008608D01*
X007715Y008509D02*
X000320Y008509D01*
X000320Y008411D02*
X007813Y008411D01*
X007912Y008312D02*
X000320Y008312D01*
X000320Y008214D02*
X008010Y008214D01*
X008109Y008115D02*
X000320Y008115D01*
X000320Y008017D02*
X008207Y008017D01*
X008306Y007918D02*
X000320Y007918D01*
X000320Y007820D02*
X005558Y007820D01*
X005468Y007721D02*
X000320Y007721D01*
X000320Y007623D02*
X005427Y007623D01*
X005420Y007524D02*
X000320Y007524D01*
X000320Y007426D02*
X005376Y007426D01*
X005278Y007327D02*
X000320Y007327D01*
X000320Y007229D02*
X005179Y007229D01*
X005170Y006937D02*
X003570Y006937D01*
X003170Y005737D02*
X004370Y005737D01*
X005170Y006537D01*
X005365Y006835D02*
X009389Y006835D01*
X009291Y006933D02*
X005449Y006933D01*
X005548Y007032D02*
X009192Y007032D01*
X009094Y007130D02*
X005646Y007130D01*
X005941Y007229D02*
X008995Y007229D01*
X008897Y007327D02*
X006055Y007327D01*
X006103Y007426D02*
X008798Y007426D01*
X008700Y007524D02*
X006120Y007524D01*
X006113Y007623D02*
X008601Y007623D01*
X008503Y007721D02*
X006072Y007721D01*
X005982Y007820D02*
X008404Y007820D01*
X008576Y008214D02*
X011820Y008214D01*
X011820Y008312D02*
X008477Y008312D01*
X008379Y008411D02*
X011820Y008411D01*
X011820Y008509D02*
X008280Y008509D01*
X008182Y008608D02*
X011820Y008608D01*
X011820Y008706D02*
X008083Y008706D01*
X007985Y008805D02*
X011820Y008805D01*
X011820Y008903D02*
X007886Y008903D01*
X007788Y009002D02*
X011820Y009002D01*
X011820Y009100D02*
X007689Y009100D01*
X007591Y009199D02*
X011820Y009199D01*
X011820Y009297D02*
X007492Y009297D01*
X007394Y009396D02*
X011820Y009396D01*
X011820Y009494D02*
X007295Y009494D01*
X007197Y009593D02*
X011820Y009593D01*
X011820Y009691D02*
X007098Y009691D01*
X007000Y009790D02*
X011820Y009790D01*
X011820Y009888D02*
X006901Y009888D01*
X006803Y009987D02*
X011820Y009987D01*
X011820Y010085D02*
X006704Y010085D01*
X006606Y010184D02*
X011820Y010184D01*
X011820Y010282D02*
X006507Y010282D01*
X006409Y010381D02*
X011820Y010381D01*
X011820Y010479D02*
X006320Y010479D01*
X006320Y010578D02*
X011820Y010578D01*
X011820Y010676D02*
X006291Y010676D01*
X006227Y010775D02*
X011820Y010775D01*
X011820Y010873D02*
X006072Y010873D01*
X006297Y013262D02*
X006140Y013327D01*
X006020Y013447D01*
X005988Y013523D01*
X005957Y013447D01*
X005837Y013327D01*
X005680Y013262D01*
X005510Y013262D01*
X005352Y013327D01*
X005232Y013447D01*
X005201Y013523D01*
X005170Y013447D01*
X005049Y013327D01*
X004892Y013262D01*
X004722Y013262D01*
X004565Y013327D01*
X004445Y013447D01*
X004413Y013523D01*
X004382Y013447D01*
X004262Y013327D01*
X004105Y013262D01*
X003935Y013262D01*
X003778Y013327D01*
X003660Y013445D01*
X003660Y013350D01*
X003572Y013262D01*
X002893Y013262D01*
X002805Y013350D01*
X002805Y014029D01*
X002893Y014117D01*
X003572Y014117D01*
X003660Y014029D01*
X003660Y013934D01*
X003778Y014052D01*
X003935Y014117D01*
X004105Y014117D01*
X004262Y014052D01*
X004382Y013932D01*
X004413Y013856D01*
X004445Y013932D01*
X004565Y014052D01*
X004722Y014117D01*
X004892Y014117D01*
X005049Y014052D01*
X005170Y013932D01*
X005201Y013856D01*
X005232Y013932D01*
X005352Y014052D01*
X005510Y014117D01*
X005680Y014117D01*
X005837Y014052D01*
X005957Y013932D01*
X005988Y013856D01*
X006020Y013932D01*
X006140Y014052D01*
X006297Y014117D01*
X006467Y014117D01*
X006624Y014052D01*
X006744Y013932D01*
X006776Y013856D01*
X006807Y013932D01*
X006927Y014052D01*
X007084Y014117D01*
X007254Y014117D01*
X007412Y014052D01*
X007532Y013932D01*
X007563Y013856D01*
X007594Y013932D01*
X007715Y014052D01*
X007872Y014117D01*
X008042Y014117D01*
X008199Y014052D01*
X008319Y013932D01*
X008350Y013856D01*
X008382Y013932D01*
X008502Y014052D01*
X008659Y014117D01*
X008829Y014117D01*
X008986Y014052D01*
X009107Y013932D01*
X009138Y013856D01*
X009169Y013932D01*
X009289Y014052D01*
X009447Y014117D01*
X009617Y014117D01*
X009774Y014052D01*
X009894Y013932D01*
X009925Y013856D01*
X009957Y013932D01*
X010077Y014052D01*
X010234Y014117D01*
X010404Y014117D01*
X010561Y014052D01*
X010681Y013932D01*
X010746Y013774D01*
X010746Y013604D01*
X010681Y013447D01*
X010561Y013327D01*
X010404Y013262D01*
X010234Y013262D01*
X010077Y013327D01*
X009957Y013447D01*
X009925Y013523D01*
X009894Y013447D01*
X009774Y013327D01*
X009617Y013262D01*
X009447Y013262D01*
X009289Y013327D01*
X009169Y013447D01*
X009138Y013523D01*
X009107Y013447D01*
X008986Y013327D01*
X008829Y013262D01*
X008659Y013262D01*
X008502Y013327D01*
X008382Y013447D01*
X008350Y013523D01*
X008319Y013447D01*
X008199Y013327D01*
X008042Y013262D01*
X007872Y013262D01*
X007715Y013327D01*
X007594Y013447D01*
X007563Y013523D01*
X007532Y013447D01*
X007412Y013327D01*
X007254Y013262D01*
X007084Y013262D01*
X006927Y013327D01*
X006807Y013447D01*
X006776Y013523D01*
X006744Y013447D01*
X006624Y013327D01*
X006467Y013262D01*
X006297Y013262D01*
X006131Y013336D02*
X005845Y013336D01*
X005944Y013434D02*
X006033Y013434D01*
X006018Y013927D02*
X005959Y013927D01*
X005863Y014025D02*
X006113Y014025D01*
X006651Y014025D02*
X006901Y014025D01*
X006805Y013927D02*
X006746Y013927D01*
X006731Y013434D02*
X006820Y013434D01*
X006919Y013336D02*
X006633Y013336D01*
X007420Y013336D02*
X007706Y013336D01*
X007607Y013434D02*
X007519Y013434D01*
X007534Y013927D02*
X007592Y013927D01*
X007688Y014025D02*
X007438Y014025D01*
X008226Y014025D02*
X008475Y014025D01*
X008380Y013927D02*
X008321Y013927D01*
X008306Y013434D02*
X008395Y013434D01*
X008493Y013336D02*
X008208Y013336D01*
X008995Y013336D02*
X009281Y013336D01*
X009182Y013434D02*
X009093Y013434D01*
X009109Y013927D02*
X009167Y013927D01*
X009263Y014025D02*
X009013Y014025D01*
X009800Y014025D02*
X010050Y014025D01*
X009955Y013927D02*
X009896Y013927D01*
X009881Y013434D02*
X009970Y013434D01*
X010068Y013336D02*
X009782Y013336D01*
X010570Y013336D02*
X011820Y013336D01*
X011820Y013434D02*
X010668Y013434D01*
X010717Y013533D02*
X011820Y013533D01*
X011820Y013631D02*
X010746Y013631D01*
X010746Y013730D02*
X011820Y013730D01*
X011820Y013828D02*
X010724Y013828D01*
X010683Y013927D02*
X011820Y013927D01*
X011820Y014025D02*
X010588Y014025D01*
X011820Y014124D02*
X000320Y014124D01*
X000320Y014222D02*
X011820Y014222D01*
X011820Y014321D02*
X000320Y014321D01*
X000320Y014419D02*
X011820Y014419D01*
X011820Y014518D02*
X000320Y014518D01*
X000320Y014616D02*
X011820Y014616D01*
X011820Y014715D02*
X000320Y014715D01*
X000320Y014813D02*
X011820Y014813D01*
X011820Y014912D02*
X000320Y014912D01*
X000320Y015010D02*
X011820Y015010D01*
X011820Y015109D02*
X000320Y015109D01*
X000320Y015207D02*
X011820Y015207D01*
X011820Y015306D02*
X000320Y015306D01*
X000320Y015404D02*
X011820Y015404D01*
X011820Y015503D02*
X000320Y015503D01*
X000320Y015601D02*
X011820Y015601D01*
X011820Y015700D02*
X000320Y015700D01*
X000320Y015798D02*
X011820Y015798D01*
X011820Y015897D02*
X000320Y015897D01*
X000320Y015995D02*
X011820Y015995D01*
X011820Y016094D02*
X000320Y016094D01*
X000320Y016192D02*
X011820Y016192D01*
X011820Y016291D02*
X000320Y016291D01*
X000320Y016389D02*
X011820Y016389D01*
X011820Y016488D02*
X000320Y016488D01*
X000320Y016586D02*
X011820Y016586D01*
X011820Y016685D02*
X000320Y016685D01*
X000320Y016783D02*
X003214Y016783D01*
X003156Y016841D02*
X003291Y016707D01*
X007465Y016707D01*
X007600Y016841D01*
X007600Y018632D01*
X007465Y018767D01*
X005465Y020767D01*
X003271Y020767D01*
X003189Y020849D01*
X003053Y020905D01*
X002907Y020905D01*
X002771Y020849D01*
X002668Y020745D01*
X002612Y020610D01*
X002612Y020463D01*
X002668Y020328D01*
X002771Y020225D01*
X002907Y020169D01*
X003053Y020169D01*
X003189Y020225D01*
X003271Y020307D01*
X005275Y020307D01*
X007140Y018441D01*
X007140Y017167D01*
X003616Y017167D01*
X003616Y017250D01*
X003696Y017330D01*
X003752Y017465D01*
X003752Y017612D01*
X003696Y017747D01*
X003593Y017851D01*
X003481Y017897D01*
X005249Y017897D01*
X005331Y017815D01*
X005467Y017759D01*
X005613Y017759D01*
X005749Y017815D01*
X005852Y017918D01*
X005908Y018053D01*
X005908Y018200D01*
X005852Y018335D01*
X005749Y018439D01*
X005613Y018495D01*
X005467Y018495D01*
X005331Y018439D01*
X005249Y018357D01*
X001628Y018357D01*
X001605Y018371D01*
X001536Y018357D01*
X001465Y018357D01*
X001458Y018350D01*
X001439Y018369D01*
X001303Y018425D01*
X001157Y018425D01*
X001021Y018369D01*
X000918Y018265D01*
X000862Y018130D01*
X000862Y017983D01*
X000918Y017848D01*
X001021Y017745D01*
X001157Y017689D01*
X001303Y017689D01*
X001439Y017745D01*
X001542Y017848D01*
X001560Y017892D01*
X001584Y017897D01*
X003287Y017897D01*
X003175Y017851D01*
X003072Y017747D01*
X003016Y017612D01*
X003016Y017465D01*
X003072Y017330D01*
X003156Y017246D01*
X003156Y016841D01*
X003156Y016882D02*
X000320Y016882D01*
X000320Y016980D02*
X003156Y016980D01*
X003156Y017079D02*
X000320Y017079D01*
X000320Y017177D02*
X003156Y017177D01*
X003126Y017276D02*
X000320Y017276D01*
X000320Y017374D02*
X003054Y017374D01*
X003016Y017473D02*
X000320Y017473D01*
X000320Y017571D02*
X003016Y017571D01*
X003040Y017670D02*
X000320Y017670D01*
X000320Y017768D02*
X000998Y017768D01*
X000910Y017867D02*
X000320Y017867D01*
X000320Y017965D02*
X000869Y017965D01*
X000862Y018064D02*
X000320Y018064D01*
X000320Y018162D02*
X000875Y018162D01*
X000916Y018261D02*
X000320Y018261D01*
X000320Y018359D02*
X001012Y018359D01*
X001115Y018517D02*
X001020Y018611D01*
X000893Y018559D01*
X000747Y018559D01*
X000611Y018615D01*
X000508Y018718D01*
X000452Y018853D01*
X000452Y019000D01*
X000508Y019135D01*
X000611Y019239D01*
X000747Y019295D01*
X000893Y019295D01*
X001029Y019239D01*
X001111Y019157D01*
X001125Y019157D01*
X001305Y018977D01*
X005413Y018977D01*
X005458Y019085D01*
X005561Y019189D01*
X005697Y019245D01*
X005843Y019245D01*
X005979Y019189D01*
X006082Y019085D01*
X006138Y018950D01*
X006138Y018803D01*
X006082Y018668D01*
X005979Y018565D01*
X005843Y018509D01*
X005697Y018509D01*
X005677Y018517D01*
X001115Y018517D01*
X001075Y018556D02*
X000320Y018556D01*
X000320Y018458D02*
X005377Y018458D01*
X005252Y018359D02*
X001624Y018359D01*
X001548Y018359D02*
X001448Y018359D01*
X001550Y017867D02*
X003214Y017867D01*
X003093Y017768D02*
X001462Y017768D01*
X001233Y019049D02*
X002471Y019049D01*
X002405Y019076D02*
X002597Y018997D01*
X002803Y018997D01*
X002995Y019076D01*
X003141Y019222D01*
X003220Y019413D01*
X003220Y019417D01*
X003259Y019322D01*
X003405Y019176D01*
X003597Y019097D01*
X003803Y019097D01*
X003995Y019176D01*
X004141Y019322D01*
X004180Y019417D01*
X004180Y019085D01*
X004268Y018997D01*
X005132Y018997D01*
X005220Y019085D01*
X005220Y019949D01*
X005132Y020037D01*
X004268Y020037D01*
X004180Y019949D01*
X004180Y019817D01*
X004141Y019911D01*
X003995Y020058D01*
X003803Y020137D01*
X003597Y020137D01*
X003405Y020058D01*
X003259Y019911D01*
X003180Y019720D01*
X003180Y019717D01*
X003141Y019811D01*
X002995Y019958D01*
X002803Y020037D01*
X002597Y020037D01*
X002405Y019958D01*
X002259Y019811D01*
X002220Y019717D01*
X002220Y019720D01*
X002141Y019911D01*
X001995Y020058D01*
X001803Y020137D01*
X001597Y020137D01*
X001405Y020058D01*
X001259Y019911D01*
X001180Y019720D01*
X001180Y019513D01*
X001259Y019322D01*
X001405Y019176D01*
X001597Y019097D01*
X001803Y019097D01*
X001995Y019176D01*
X002141Y019322D01*
X002180Y019417D01*
X002180Y019413D01*
X002259Y019222D01*
X002405Y019076D01*
X002334Y019147D02*
X001925Y019147D01*
X002064Y019246D02*
X002249Y019246D01*
X002209Y019344D02*
X002150Y019344D01*
X002212Y019738D02*
X002229Y019738D01*
X002285Y019837D02*
X002172Y019837D01*
X002117Y019935D02*
X002383Y019935D01*
X002589Y020034D02*
X002018Y020034D01*
X001814Y020132D02*
X003586Y020132D01*
X003382Y020034D02*
X002811Y020034D01*
X002765Y020231D02*
X000320Y020231D01*
X000320Y020329D02*
X002667Y020329D01*
X002627Y020428D02*
X000320Y020428D01*
X000320Y020526D02*
X002612Y020526D01*
X002618Y020625D02*
X000320Y020625D01*
X000320Y020723D02*
X002659Y020723D01*
X002744Y020822D02*
X000320Y020822D01*
X000320Y020920D02*
X011820Y020920D01*
X011820Y020822D02*
X003216Y020822D01*
X003195Y020231D02*
X005351Y020231D01*
X005449Y020132D02*
X003814Y020132D01*
X004018Y020034D02*
X004265Y020034D01*
X004180Y019935D02*
X004117Y019935D01*
X004172Y019837D02*
X004180Y019837D01*
X004150Y019344D02*
X004180Y019344D01*
X004180Y019246D02*
X004064Y019246D01*
X004180Y019147D02*
X003925Y019147D01*
X004216Y019049D02*
X002929Y019049D01*
X003066Y019147D02*
X003475Y019147D01*
X003336Y019246D02*
X003151Y019246D01*
X003191Y019344D02*
X003250Y019344D01*
X003188Y019738D02*
X003171Y019738D01*
X003115Y019837D02*
X003228Y019837D01*
X003283Y019935D02*
X003017Y019935D01*
X002300Y021353D02*
X002576Y021629D01*
X002725Y021989D01*
X002725Y022379D01*
X002576Y022739D01*
X002300Y023015D01*
X001940Y023164D01*
X001550Y023164D01*
X001190Y023015D01*
X000914Y022739D01*
X000765Y022379D01*
X000765Y021989D01*
X000914Y021629D01*
X001190Y021353D01*
X001550Y021204D01*
X001940Y021204D01*
X002300Y021353D01*
X002359Y021413D02*
X009792Y021413D01*
X009851Y021353D02*
X010211Y021204D01*
X010601Y021204D01*
X010961Y021353D01*
X011237Y021629D01*
X011386Y021989D01*
X011386Y022379D01*
X011237Y022739D01*
X010961Y023015D01*
X010601Y023164D01*
X010211Y023164D01*
X009851Y023015D01*
X009575Y022739D01*
X009426Y022379D01*
X009426Y021989D01*
X009575Y021629D01*
X009851Y021353D01*
X009945Y021314D02*
X002206Y021314D01*
X001968Y021216D02*
X010183Y021216D01*
X010629Y021216D02*
X011820Y021216D01*
X011820Y021314D02*
X010867Y021314D01*
X011021Y021413D02*
X011820Y021413D01*
X011820Y021511D02*
X011119Y021511D01*
X011218Y021610D02*
X011820Y021610D01*
X011820Y021708D02*
X011270Y021708D01*
X011311Y021807D02*
X011820Y021807D01*
X011820Y021905D02*
X011351Y021905D01*
X011386Y022004D02*
X011820Y022004D01*
X011820Y022102D02*
X011386Y022102D01*
X011386Y022201D02*
X011820Y022201D01*
X011820Y022299D02*
X011386Y022299D01*
X011378Y022398D02*
X011820Y022398D01*
X011820Y022496D02*
X011338Y022496D01*
X011297Y022595D02*
X011820Y022595D01*
X011820Y022693D02*
X011256Y022693D01*
X011184Y022792D02*
X011820Y022792D01*
X011820Y022890D02*
X011086Y022890D01*
X010987Y022989D02*
X011820Y022989D01*
X011820Y023087D02*
X010786Y023087D01*
X010026Y023087D02*
X009323Y023087D01*
X009296Y023150D02*
X009121Y023326D01*
X008891Y023421D01*
X008643Y023421D01*
X008413Y023326D01*
X008238Y023150D01*
X008143Y022921D01*
X008143Y022672D01*
X008238Y022443D01*
X008413Y022267D01*
X008643Y022172D01*
X008891Y022172D01*
X009121Y022267D01*
X009296Y022443D01*
X009391Y022672D01*
X009391Y022921D01*
X009296Y023150D01*
X009261Y023186D02*
X011820Y023186D01*
X011820Y023284D02*
X009162Y023284D01*
X008984Y023383D02*
X011820Y023383D01*
X011820Y023481D02*
X000320Y023481D01*
X000320Y023383D02*
X005676Y023383D01*
X005769Y023421D02*
X005539Y023326D01*
X005364Y023150D01*
X005269Y022921D01*
X005269Y022672D01*
X005364Y022443D01*
X005539Y022267D01*
X005769Y022172D01*
X006017Y022172D01*
X006247Y022267D01*
X006422Y022443D01*
X006517Y022672D01*
X006517Y022921D01*
X006422Y023150D01*
X006247Y023326D01*
X006017Y023421D01*
X005769Y023421D01*
X005498Y023284D02*
X000320Y023284D01*
X000320Y023186D02*
X005399Y023186D01*
X005337Y023087D02*
X002125Y023087D01*
X002326Y022989D02*
X005297Y022989D01*
X005269Y022890D02*
X002424Y022890D01*
X002523Y022792D02*
X005269Y022792D01*
X005269Y022693D02*
X002594Y022693D01*
X002635Y022595D02*
X005301Y022595D01*
X005342Y022496D02*
X002676Y022496D01*
X002717Y022398D02*
X005409Y022398D01*
X005507Y022299D02*
X002725Y022299D01*
X002725Y022201D02*
X005700Y022201D01*
X006086Y022201D02*
X008574Y022201D01*
X008381Y022299D02*
X006279Y022299D01*
X006377Y022398D02*
X008283Y022398D01*
X008216Y022496D02*
X006444Y022496D01*
X006485Y022595D02*
X008175Y022595D01*
X008143Y022693D02*
X006517Y022693D01*
X006517Y022792D02*
X008143Y022792D01*
X008143Y022890D02*
X006517Y022890D01*
X006489Y022989D02*
X008171Y022989D01*
X008212Y023087D02*
X006448Y023087D01*
X006387Y023186D02*
X008273Y023186D01*
X008372Y023284D02*
X006288Y023284D01*
X006110Y023383D02*
X008550Y023383D01*
X009251Y022398D02*
X009434Y022398D01*
X009426Y022299D02*
X009153Y022299D01*
X009318Y022496D02*
X009475Y022496D01*
X009516Y022595D02*
X009359Y022595D01*
X009391Y022693D02*
X009557Y022693D01*
X009628Y022792D02*
X009391Y022792D01*
X009391Y022890D02*
X009727Y022890D01*
X009825Y022989D02*
X009363Y022989D01*
X009426Y022201D02*
X008960Y022201D01*
X009426Y022102D02*
X002725Y022102D01*
X002725Y022004D02*
X009426Y022004D01*
X009461Y021905D02*
X002690Y021905D01*
X002649Y021807D02*
X009502Y021807D01*
X009543Y021708D02*
X002608Y021708D01*
X002556Y021610D02*
X009595Y021610D01*
X009693Y021511D02*
X002458Y021511D01*
X001522Y021216D02*
X000320Y021216D01*
X000320Y021314D02*
X001284Y021314D01*
X001130Y021413D02*
X000320Y021413D01*
X000320Y021511D02*
X001032Y021511D01*
X000933Y021610D02*
X000320Y021610D01*
X000320Y021708D02*
X000881Y021708D01*
X000840Y021807D02*
X000320Y021807D01*
X000320Y021905D02*
X000800Y021905D01*
X000765Y022004D02*
X000320Y022004D01*
X000320Y022102D02*
X000765Y022102D01*
X000765Y022201D02*
X000320Y022201D01*
X000320Y022299D02*
X000765Y022299D01*
X000773Y022398D02*
X000320Y022398D01*
X000320Y022496D02*
X000814Y022496D01*
X000854Y022595D02*
X000320Y022595D01*
X000320Y022693D02*
X000895Y022693D01*
X000967Y022792D02*
X000320Y022792D01*
X000320Y022890D02*
X001065Y022890D01*
X001164Y022989D02*
X000320Y022989D01*
X000320Y023087D02*
X001365Y023087D01*
X000320Y023580D02*
X011820Y023580D01*
X011820Y021117D02*
X000320Y021117D01*
X000320Y021019D02*
X011820Y021019D01*
X011820Y020723D02*
X005509Y020723D01*
X005607Y020625D02*
X011820Y020625D01*
X011820Y020526D02*
X005706Y020526D01*
X005804Y020428D02*
X011820Y020428D01*
X011820Y020329D02*
X005903Y020329D01*
X006001Y020231D02*
X011820Y020231D01*
X011820Y020132D02*
X006100Y020132D01*
X006198Y020034D02*
X011820Y020034D01*
X011820Y019935D02*
X006297Y019935D01*
X006395Y019837D02*
X011820Y019837D01*
X011820Y019738D02*
X006494Y019738D01*
X006592Y019640D02*
X011820Y019640D01*
X011820Y019541D02*
X006691Y019541D01*
X006789Y019443D02*
X011820Y019443D01*
X011820Y019344D02*
X006888Y019344D01*
X006986Y019246D02*
X011820Y019246D01*
X011820Y019147D02*
X007085Y019147D01*
X007183Y019049D02*
X011820Y019049D01*
X011820Y018950D02*
X007282Y018950D01*
X007380Y018852D02*
X011820Y018852D01*
X011820Y018753D02*
X007479Y018753D01*
X007577Y018655D02*
X011820Y018655D01*
X011820Y018556D02*
X007600Y018556D01*
X007600Y018458D02*
X011820Y018458D01*
X011820Y018359D02*
X007600Y018359D01*
X007600Y018261D02*
X011820Y018261D01*
X011820Y018162D02*
X007600Y018162D01*
X007600Y018064D02*
X011820Y018064D01*
X011820Y017965D02*
X007600Y017965D01*
X007600Y017867D02*
X011820Y017867D01*
X011820Y017768D02*
X007600Y017768D01*
X007600Y017670D02*
X011820Y017670D01*
X011820Y017571D02*
X007600Y017571D01*
X007600Y017473D02*
X011820Y017473D01*
X011820Y017374D02*
X007600Y017374D01*
X007600Y017276D02*
X011820Y017276D01*
X011820Y017177D02*
X007600Y017177D01*
X007600Y017079D02*
X011820Y017079D01*
X011820Y016980D02*
X007600Y016980D01*
X007600Y016882D02*
X011820Y016882D01*
X011820Y016783D02*
X007542Y016783D01*
X007140Y017177D02*
X003616Y017177D01*
X003642Y017276D02*
X007140Y017276D01*
X007140Y017374D02*
X003714Y017374D01*
X003752Y017473D02*
X007140Y017473D01*
X007140Y017571D02*
X003752Y017571D01*
X003728Y017670D02*
X007140Y017670D01*
X007140Y017768D02*
X005637Y017768D01*
X005801Y017867D02*
X007140Y017867D01*
X007140Y017965D02*
X005872Y017965D01*
X005908Y018064D02*
X007140Y018064D01*
X007140Y018162D02*
X005908Y018162D01*
X005883Y018261D02*
X007140Y018261D01*
X007140Y018359D02*
X005828Y018359D01*
X005703Y018458D02*
X007124Y018458D01*
X007025Y018556D02*
X005958Y018556D01*
X006069Y018655D02*
X006927Y018655D01*
X006828Y018753D02*
X006117Y018753D01*
X006138Y018852D02*
X006730Y018852D01*
X006631Y018950D02*
X006138Y018950D01*
X006097Y019049D02*
X006533Y019049D01*
X006434Y019147D02*
X006020Y019147D01*
X006139Y019443D02*
X005220Y019443D01*
X005220Y019541D02*
X006040Y019541D01*
X005942Y019640D02*
X005220Y019640D01*
X005220Y019738D02*
X005843Y019738D01*
X005745Y019837D02*
X005220Y019837D01*
X005220Y019935D02*
X005646Y019935D01*
X005548Y020034D02*
X005135Y020034D01*
X005220Y019344D02*
X006237Y019344D01*
X006336Y019246D02*
X005220Y019246D01*
X005220Y019147D02*
X005520Y019147D01*
X005443Y019049D02*
X005184Y019049D01*
X005279Y017867D02*
X003554Y017867D01*
X003675Y017768D02*
X005443Y017768D01*
X005326Y014025D02*
X005076Y014025D01*
X005172Y013927D02*
X005230Y013927D01*
X005245Y013434D02*
X005156Y013434D01*
X005058Y013336D02*
X005344Y013336D01*
X004556Y013336D02*
X004271Y013336D01*
X004369Y013434D02*
X004458Y013434D01*
X004443Y013927D02*
X004384Y013927D01*
X004289Y014025D02*
X004538Y014025D01*
X003751Y014025D02*
X003660Y014025D01*
X003660Y013434D02*
X003670Y013434D01*
X003646Y013336D02*
X003769Y013336D01*
X002819Y013336D02*
X000320Y013336D01*
X000320Y013434D02*
X002805Y013434D01*
X002805Y013533D02*
X000320Y013533D01*
X000320Y013631D02*
X002805Y013631D01*
X002805Y013730D02*
X000320Y013730D01*
X000320Y013828D02*
X002805Y013828D01*
X002805Y013927D02*
X000320Y013927D01*
X000320Y014025D02*
X002805Y014025D01*
X000571Y018655D02*
X000320Y018655D01*
X000320Y018753D02*
X000493Y018753D01*
X000453Y018852D02*
X000320Y018852D01*
X000320Y018950D02*
X000452Y018950D01*
X000472Y019049D02*
X000320Y019049D01*
X000320Y019147D02*
X000520Y019147D01*
X000628Y019246D02*
X000320Y019246D01*
X000320Y019344D02*
X001250Y019344D01*
X001209Y019443D02*
X000320Y019443D01*
X000320Y019541D02*
X001180Y019541D01*
X001180Y019640D02*
X000320Y019640D01*
X000320Y019738D02*
X001188Y019738D01*
X001228Y019837D02*
X000320Y019837D01*
X000320Y019935D02*
X001283Y019935D01*
X001382Y020034D02*
X000320Y020034D01*
X000320Y020132D02*
X001586Y020132D01*
X001336Y019246D02*
X001012Y019246D01*
X001135Y019147D02*
X001475Y019147D01*
X000320Y013237D02*
X011820Y013237D01*
X011820Y013139D02*
X000320Y013139D01*
X000320Y013040D02*
X011820Y013040D01*
X011820Y012942D02*
X000320Y012942D01*
X000320Y012843D02*
X011820Y012843D01*
X011820Y012745D02*
X000320Y012745D01*
X000320Y012646D02*
X011820Y012646D01*
X011820Y012548D02*
X000320Y012548D01*
X000320Y012449D02*
X011820Y012449D01*
X011820Y012351D02*
X000320Y012351D01*
X000320Y012252D02*
X011820Y012252D01*
X011820Y012154D02*
X000320Y012154D01*
X000320Y012055D02*
X011820Y012055D01*
X011820Y011957D02*
X000320Y011957D01*
X000320Y011858D02*
X011820Y011858D01*
X011820Y011760D02*
X000320Y011760D01*
X000320Y011661D02*
X011820Y011661D01*
X011820Y011563D02*
X000320Y011563D01*
X000320Y011464D02*
X011820Y011464D01*
X011820Y011366D02*
X000320Y011366D01*
X000320Y011267D02*
X011820Y011267D01*
X011820Y011169D02*
X000320Y011169D01*
X000320Y011070D02*
X011820Y011070D01*
X011820Y010972D02*
X000320Y010972D01*
X002778Y005062D02*
X002805Y005062D01*
X002805Y004963D02*
X002679Y004963D01*
X002581Y004865D02*
X002805Y004865D01*
X002805Y004766D02*
X002570Y004766D01*
X002570Y004668D02*
X002826Y004668D01*
X002570Y004569D02*
X010970Y004569D01*
X010970Y004471D02*
X002570Y004471D01*
X002570Y004372D02*
X010970Y004372D01*
X010970Y004274D02*
X002570Y004274D01*
X002570Y004175D02*
X010970Y004175D01*
X010970Y004077D02*
X006480Y004077D01*
X006634Y003978D02*
X007080Y003978D01*
X007230Y003978D02*
X007330Y003978D01*
X007330Y004015D02*
X007330Y003547D01*
X007799Y003547D01*
X007787Y003618D01*
X007762Y003696D01*
X007725Y003769D01*
X007677Y003835D01*
X007619Y003893D01*
X007553Y003941D01*
X007480Y003979D01*
X007402Y004004D01*
X007330Y004015D01*
X007330Y003880D02*
X007230Y003880D01*
X007230Y003781D02*
X007330Y003781D01*
X007330Y003683D02*
X007230Y003683D01*
X007230Y003584D02*
X007330Y003584D01*
X007330Y003486D02*
X010970Y003486D01*
X010970Y003584D02*
X007793Y003584D01*
X007766Y003683D02*
X010970Y003683D01*
X010970Y003781D02*
X007716Y003781D01*
X007632Y003880D02*
X010970Y003880D01*
X010970Y003978D02*
X007480Y003978D01*
X007414Y004668D02*
X007713Y004668D01*
X007614Y004766D02*
X007512Y004766D01*
X007537Y005259D02*
X007590Y005259D01*
X007681Y005357D02*
X007445Y005357D01*
X006894Y005357D02*
X006657Y005357D01*
X006749Y005259D02*
X006802Y005259D01*
X006827Y004766D02*
X006725Y004766D01*
X006626Y004668D02*
X006925Y004668D01*
X006928Y003880D02*
X006726Y003880D01*
X006766Y003781D02*
X006844Y003781D01*
X006771Y003387D02*
X006756Y003387D01*
X006802Y003289D02*
X006707Y003289D01*
X006609Y003190D02*
X006860Y003190D01*
X006953Y003092D02*
X006420Y003092D01*
X006080Y004077D02*
X004480Y004077D01*
X004634Y003978D02*
X005084Y003978D01*
X004928Y003880D02*
X004726Y003880D01*
X004766Y003781D02*
X004835Y003781D01*
X004763Y003387D02*
X004756Y003387D01*
X004803Y003289D02*
X004707Y003289D01*
X004609Y003190D02*
X004851Y003190D01*
X004950Y003092D02*
X004420Y003092D01*
X004140Y003092D02*
X003610Y003092D01*
X003709Y003190D02*
X003951Y003190D01*
X003853Y003289D02*
X003757Y003289D01*
X003797Y003387D02*
X003804Y003387D01*
X003794Y003781D02*
X003725Y003781D01*
X003632Y003880D02*
X003834Y003880D01*
X003926Y003978D02*
X003476Y003978D01*
X003639Y004668D02*
X003776Y004668D01*
X003677Y004766D02*
X003660Y004766D01*
X003660Y005357D02*
X003744Y005357D01*
X004264Y004668D02*
X004563Y004668D01*
X004464Y004766D02*
X004362Y004766D01*
X004387Y005259D02*
X004440Y005259D01*
X004532Y005357D02*
X004295Y005357D01*
X004080Y004077D02*
X002570Y004077D01*
X002570Y003978D02*
X003084Y003978D01*
X002928Y003880D02*
X002570Y003880D01*
X002570Y003781D02*
X002835Y003781D01*
X002794Y003683D02*
X002570Y003683D01*
X002570Y003584D02*
X002760Y003584D01*
X002760Y003486D02*
X002570Y003486D01*
X002570Y003387D02*
X002763Y003387D01*
X002803Y003289D02*
X002570Y003289D01*
X002570Y003190D02*
X002851Y003190D01*
X002950Y003092D02*
X002698Y003092D01*
X002796Y002993D02*
X003137Y002993D01*
X003423Y002993D02*
X005137Y002993D01*
X005839Y004668D02*
X006138Y004668D01*
X006039Y004766D02*
X005937Y004766D01*
X005962Y005259D02*
X006015Y005259D01*
X006107Y005357D02*
X005870Y005357D01*
X005372Y006244D02*
X009980Y006244D01*
X009882Y006342D02*
X005468Y006342D01*
X005509Y006441D02*
X009783Y006441D01*
X009685Y006539D02*
X005520Y006539D01*
X005507Y006638D02*
X009586Y006638D01*
X009488Y006736D02*
X005465Y006736D01*
X005170Y006937D02*
X005770Y007537D01*
X007230Y003387D02*
X007330Y003387D01*
X007330Y003289D02*
X007230Y003289D01*
X007230Y003190D02*
X007330Y003190D01*
X007330Y003092D02*
X007230Y003092D01*
X007607Y003092D02*
X007842Y003092D01*
X007700Y003190D02*
X010970Y003190D01*
X010970Y003289D02*
X007758Y003289D01*
X007789Y003387D02*
X010970Y003387D01*
X011312Y002796D02*
X011820Y002796D01*
X011820Y002895D02*
X011370Y002895D01*
X011370Y002993D02*
X011820Y002993D01*
X011820Y003092D02*
X011370Y003092D01*
X011370Y003190D02*
X011820Y003190D01*
X011820Y003289D02*
X011370Y003289D01*
X011370Y003387D02*
X011820Y003387D01*
X011820Y003486D02*
X011370Y003486D01*
X011370Y003584D02*
X011820Y003584D01*
X011820Y003683D02*
X011370Y003683D01*
X011370Y003781D02*
X011820Y003781D01*
X011820Y003880D02*
X011370Y003880D01*
X011370Y003978D02*
X011820Y003978D01*
X011820Y004077D02*
X011370Y004077D01*
X011370Y004175D02*
X011820Y004175D01*
X011820Y004274D02*
X011370Y004274D01*
X011370Y004372D02*
X011820Y004372D01*
X011820Y004471D02*
X011370Y004471D01*
X011370Y004569D02*
X011820Y004569D01*
X011820Y004668D02*
X011370Y004668D01*
X011370Y004766D02*
X011820Y004766D01*
X011820Y004865D02*
X011370Y004865D01*
X011370Y004963D02*
X011820Y004963D01*
X011820Y005062D02*
X011370Y005062D01*
X011370Y005160D02*
X011820Y005160D01*
X011820Y005259D02*
X011370Y005259D01*
X011370Y005357D02*
X011820Y005357D01*
X011820Y005456D02*
X011334Y005456D01*
X011235Y005554D02*
X011820Y005554D01*
X011820Y005653D02*
X011137Y005653D01*
X011038Y005751D02*
X011820Y005751D01*
X011820Y005850D02*
X010940Y005850D01*
X010841Y005948D02*
X011820Y005948D01*
X011820Y006047D02*
X010743Y006047D01*
X010644Y006145D02*
X011820Y006145D01*
X011820Y006244D02*
X010546Y006244D01*
X010447Y006342D02*
X011820Y006342D01*
X011820Y006441D02*
X010349Y006441D01*
X010250Y006539D02*
X011820Y006539D01*
X011820Y006638D02*
X010152Y006638D01*
X010053Y006736D02*
X011820Y006736D01*
X011820Y006835D02*
X009955Y006835D01*
X009856Y006933D02*
X011820Y006933D01*
X011820Y007032D02*
X009758Y007032D01*
X009659Y007130D02*
X011820Y007130D01*
X011820Y007229D02*
X009561Y007229D01*
X009462Y007327D02*
X011820Y007327D01*
X011820Y007426D02*
X009364Y007426D01*
X009265Y007524D02*
X011820Y007524D01*
X011820Y007623D02*
X009167Y007623D01*
X009068Y007721D02*
X011820Y007721D01*
X011820Y007820D02*
X008970Y007820D01*
X008871Y007918D02*
X011820Y007918D01*
X011820Y008017D02*
X008773Y008017D01*
X008674Y008115D02*
X011820Y008115D01*
X010867Y005357D02*
X010593Y005357D01*
X010680Y005259D02*
X010965Y005259D01*
X010736Y005128D02*
X010746Y005062D01*
X010742Y004963D02*
X010970Y004963D01*
X010970Y004865D02*
X010715Y004865D01*
X010657Y004766D02*
X010970Y004766D01*
X010970Y004668D02*
X010550Y004668D01*
X010348Y004668D02*
X010290Y004668D01*
X010290Y004766D02*
X010348Y004766D01*
X010348Y004865D02*
X010290Y004865D01*
X010290Y004963D02*
X010348Y004963D01*
X010348Y005062D02*
X010290Y005062D01*
X010290Y005160D02*
X010348Y005160D01*
X010348Y005259D02*
X010290Y005259D01*
X010290Y005357D02*
X010348Y005357D01*
X010045Y005357D02*
X009807Y005357D01*
X009899Y005259D02*
X009958Y005259D01*
X009981Y004766D02*
X009874Y004766D01*
X009776Y004668D02*
X010088Y004668D01*
X009287Y004668D02*
X008988Y004668D01*
X009087Y004766D02*
X009189Y004766D01*
X009164Y005259D02*
X009111Y005259D01*
X009020Y005357D02*
X009256Y005357D01*
X008469Y005357D02*
X008232Y005357D01*
X008324Y005259D02*
X008377Y005259D01*
X008401Y004766D02*
X008299Y004766D01*
X008201Y004668D02*
X008500Y004668D01*
X003207Y001417D02*
X002684Y001417D01*
X002724Y001516D02*
X003108Y001516D01*
X003010Y001614D02*
X002725Y001614D01*
X002725Y001713D02*
X002911Y001713D01*
X002813Y001811D02*
X002725Y001811D01*
X002643Y001319D02*
X003179Y001319D01*
X003138Y001220D02*
X002602Y001220D01*
X002541Y001122D02*
X003130Y001122D01*
X003130Y001023D02*
X002442Y001023D01*
X002344Y000925D02*
X003158Y000925D01*
X003199Y000826D02*
X002168Y000826D01*
D18*
X005170Y006537D03*
X005770Y007537D03*
X005970Y010537D03*
M02*
