%
M48
M72
T01C0.0236
T02C0.0320
T03C0.0354
T04C0.0360
T05C0.0949
T06C0.1260
%
T01
X6160Y13020
X6820Y11030
X6770Y15030
X10340Y10490
T02
X6250Y4480
X5250Y4480
X4250Y4480
X3250Y4480
X3250Y1480
X4250Y1480
X5250Y1480
X6250Y1480
T03
X9780Y7330
X10000Y8600
X11350Y6660
X11600Y8580
X10890Y17130
T04
X8901Y17189
X8114Y17189
X7327Y17189
X6539Y17189
X5752Y17189
X4964Y17189
X4177Y17189
X3390Y17189
X2602Y17189
X1815Y17189
X1815Y8528
X2602Y8528
X3390Y8528
X4177Y8528
X4964Y8528
X5752Y8528
X6539Y8528
X7327Y8528
X8114Y8528
X8901Y8528
T05
X7583Y22898
X4709Y22898
T06
X1815Y1835
X10476Y1835
X10476Y22307
X1815Y22307
M30
