G75*
G70*
%OFA0B0*%
%FSLAX24Y24*%
%IPPOS*%
%LPD*%
%AMOC8*
5,1,8,0,0,1.08239X$1,22.5*
%
%ADD10C,0.0000*%
%ADD11C,0.0050*%
%ADD12C,0.0080*%
%ADD13C,0.0100*%
%ADD14C,0.0040*%
D10*
X000170Y000127D02*
X000170Y000137D01*
X011970Y000137D01*
X011970Y023757D01*
X000170Y023757D01*
X000170Y000137D01*
X005419Y022797D02*
X005421Y022840D01*
X005427Y022883D01*
X005437Y022925D01*
X005450Y022966D01*
X005467Y023005D01*
X005488Y023043D01*
X005512Y023079D01*
X005539Y023113D01*
X005569Y023143D01*
X005602Y023171D01*
X005638Y023196D01*
X005675Y023218D01*
X005714Y023236D01*
X005755Y023250D01*
X005797Y023261D01*
X005839Y023268D01*
X005882Y023271D01*
X005925Y023270D01*
X005968Y023265D01*
X006010Y023256D01*
X006052Y023244D01*
X006092Y023227D01*
X006130Y023207D01*
X006166Y023184D01*
X006200Y023158D01*
X006232Y023128D01*
X006261Y023096D01*
X006286Y023061D01*
X006309Y023025D01*
X006328Y022986D01*
X006343Y022946D01*
X006355Y022904D01*
X006363Y022862D01*
X006367Y022819D01*
X006367Y022775D01*
X006363Y022732D01*
X006355Y022690D01*
X006343Y022648D01*
X006328Y022608D01*
X006309Y022569D01*
X006286Y022533D01*
X006261Y022498D01*
X006232Y022466D01*
X006200Y022436D01*
X006166Y022410D01*
X006130Y022387D01*
X006092Y022367D01*
X006052Y022350D01*
X006010Y022338D01*
X005968Y022329D01*
X005925Y022324D01*
X005882Y022323D01*
X005839Y022326D01*
X005797Y022333D01*
X005755Y022344D01*
X005714Y022358D01*
X005675Y022376D01*
X005638Y022398D01*
X005602Y022423D01*
X005569Y022451D01*
X005539Y022481D01*
X005512Y022515D01*
X005488Y022551D01*
X005467Y022589D01*
X005450Y022628D01*
X005437Y022669D01*
X005427Y022711D01*
X005421Y022754D01*
X005419Y022797D01*
X008293Y022797D02*
X008295Y022840D01*
X008301Y022883D01*
X008311Y022925D01*
X008324Y022966D01*
X008341Y023005D01*
X008362Y023043D01*
X008386Y023079D01*
X008413Y023113D01*
X008443Y023143D01*
X008476Y023171D01*
X008512Y023196D01*
X008549Y023218D01*
X008588Y023236D01*
X008629Y023250D01*
X008671Y023261D01*
X008713Y023268D01*
X008756Y023271D01*
X008799Y023270D01*
X008842Y023265D01*
X008884Y023256D01*
X008926Y023244D01*
X008966Y023227D01*
X009004Y023207D01*
X009040Y023184D01*
X009074Y023158D01*
X009106Y023128D01*
X009135Y023096D01*
X009160Y023061D01*
X009183Y023025D01*
X009202Y022986D01*
X009217Y022946D01*
X009229Y022904D01*
X009237Y022862D01*
X009241Y022819D01*
X009241Y022775D01*
X009237Y022732D01*
X009229Y022690D01*
X009217Y022648D01*
X009202Y022608D01*
X009183Y022569D01*
X009160Y022533D01*
X009135Y022498D01*
X009106Y022466D01*
X009074Y022436D01*
X009040Y022410D01*
X009004Y022387D01*
X008966Y022367D01*
X008926Y022350D01*
X008884Y022338D01*
X008842Y022329D01*
X008799Y022324D01*
X008756Y022323D01*
X008713Y022326D01*
X008671Y022333D01*
X008629Y022344D01*
X008588Y022358D01*
X008549Y022376D01*
X008512Y022398D01*
X008476Y022423D01*
X008443Y022451D01*
X008413Y022481D01*
X008386Y022515D01*
X008362Y022551D01*
X008341Y022589D01*
X008324Y022628D01*
X008311Y022669D01*
X008301Y022711D01*
X008295Y022754D01*
X008293Y022797D01*
X011970Y023757D02*
X011981Y023759D01*
D11*
X011840Y016522D02*
X011840Y016342D01*
X011840Y016432D02*
X011570Y016432D01*
X011660Y016342D01*
X011615Y016228D02*
X011570Y016182D01*
X011570Y016092D01*
X011615Y016047D01*
X011795Y016047D01*
X011840Y016092D01*
X011840Y016182D01*
X011795Y016228D01*
X011615Y016228D01*
X011750Y016137D02*
X011840Y016228D01*
X011466Y014066D02*
X011466Y013886D01*
X011286Y014066D01*
X011241Y014066D01*
X011196Y014021D01*
X011196Y013931D01*
X011241Y013886D01*
X011241Y013772D02*
X011196Y013727D01*
X011196Y013592D01*
X011466Y013592D01*
X011376Y013592D02*
X011376Y013727D01*
X011331Y013772D01*
X011241Y013772D01*
X011196Y013477D02*
X011196Y013387D01*
X011196Y013432D02*
X011421Y013432D01*
X011466Y013387D01*
X011466Y013342D01*
X011421Y013297D01*
X011342Y005471D02*
X011342Y005291D01*
X011342Y005381D02*
X011071Y005381D01*
X011161Y005291D01*
X011116Y005176D02*
X011071Y005131D01*
X011071Y004996D01*
X011342Y004996D01*
X011252Y004996D02*
X011252Y005131D01*
X011206Y005176D01*
X011116Y005176D01*
X011071Y004882D02*
X011071Y004792D01*
X011071Y004837D02*
X011297Y004837D01*
X011342Y004792D01*
X011342Y004747D01*
X011297Y004702D01*
X007675Y002802D02*
X007375Y002802D01*
X007375Y002577D01*
X007525Y002652D01*
X007600Y002652D01*
X007675Y002577D01*
X007675Y002427D01*
X007600Y002352D01*
X007450Y002352D01*
X007375Y002427D01*
X007214Y002577D02*
X007139Y002502D01*
X006914Y002502D01*
X006914Y002352D02*
X006914Y002802D01*
X007139Y002802D01*
X007214Y002727D01*
X007214Y002577D01*
X006754Y002802D02*
X006604Y002802D01*
X006679Y002802D02*
X006679Y002427D01*
X006604Y002352D01*
X006529Y002352D01*
X006454Y002427D01*
X002916Y007672D02*
X002961Y007717D01*
X002961Y007807D01*
X002916Y007852D01*
X002961Y007966D02*
X002961Y008146D01*
X002961Y008056D02*
X002691Y008056D01*
X002781Y007966D01*
X002736Y007852D02*
X002691Y007807D01*
X002691Y007717D01*
X002736Y007672D01*
X002916Y007672D01*
X002617Y007143D02*
X002662Y007098D01*
X002662Y007008D01*
X002617Y006962D01*
X002572Y006962D01*
X002526Y007008D01*
X002526Y007098D01*
X002572Y007143D01*
X002617Y007143D01*
X002526Y007098D02*
X002481Y007143D01*
X002436Y007143D01*
X002391Y007098D01*
X002391Y007008D01*
X002436Y006962D01*
X002481Y006962D01*
X002526Y007008D01*
X002662Y006848D02*
X002662Y006668D01*
X002662Y006758D02*
X002391Y006758D01*
X002481Y006668D01*
X002436Y006553D02*
X002391Y006508D01*
X002391Y006418D01*
X002436Y006373D01*
X002617Y006373D01*
X002662Y006418D01*
X002662Y006508D01*
X002617Y006553D01*
X002736Y008261D02*
X002781Y008261D01*
X002826Y008306D01*
X002826Y008441D01*
X002916Y008441D02*
X002736Y008441D01*
X002691Y008396D01*
X002691Y008306D01*
X002736Y008261D01*
X002916Y008261D02*
X002961Y008306D01*
X002961Y008396D01*
X002916Y008441D01*
X004935Y014592D02*
X004935Y014727D01*
X004980Y014773D01*
X005070Y014773D01*
X005115Y014727D01*
X005115Y014592D01*
X005205Y014592D02*
X004935Y014592D01*
X005115Y014682D02*
X005205Y014773D01*
X005160Y014887D02*
X005205Y014932D01*
X005205Y015022D01*
X005160Y015067D01*
X005070Y015067D01*
X005025Y015022D01*
X005025Y014977D01*
X005070Y014887D01*
X004935Y014887D01*
X004935Y015067D01*
X004870Y018372D02*
X004795Y018447D01*
X004870Y018372D02*
X005020Y018372D01*
X005095Y018447D01*
X005095Y018522D01*
X005020Y018597D01*
X004945Y018597D01*
X005020Y018597D02*
X005095Y018672D01*
X005095Y018747D01*
X005020Y018822D01*
X004870Y018822D01*
X004795Y018747D01*
X004634Y018747D02*
X004634Y018597D01*
X004559Y018522D01*
X004334Y018522D01*
X004334Y018372D02*
X004334Y018822D01*
X004559Y018822D01*
X004634Y018747D01*
X004174Y018822D02*
X004024Y018822D01*
X004099Y018822D02*
X004099Y018447D01*
X004024Y018372D01*
X003949Y018372D01*
X003874Y018447D01*
X002090Y015912D02*
X002090Y015642D01*
X002000Y015642D02*
X002181Y015642D01*
X002000Y015822D02*
X002090Y015912D01*
X001886Y015912D02*
X001886Y015687D01*
X001841Y015642D01*
X001751Y015642D01*
X001706Y015687D01*
X001706Y015912D01*
D12*
X001934Y016588D02*
X002146Y016588D01*
X002600Y016738D02*
X002600Y017076D01*
X001480Y017076D02*
X001480Y016738D01*
X001450Y019067D02*
X001200Y019317D01*
X001200Y019817D01*
X001450Y020067D01*
X001950Y020067D01*
X002200Y019817D01*
X002450Y020067D01*
X002950Y020067D01*
X003200Y019817D01*
X003450Y020067D01*
X003950Y020067D01*
X004200Y019817D01*
X004450Y020067D01*
X004950Y020067D01*
X005200Y019817D01*
X005200Y019317D01*
X004950Y019067D01*
X004450Y019067D01*
X004200Y019317D01*
X003950Y019067D01*
X003450Y019067D01*
X003200Y019317D01*
X002950Y019067D01*
X002450Y019067D01*
X002200Y019317D01*
X001950Y019067D01*
X001450Y019067D01*
X002740Y014182D02*
X002740Y013197D01*
X010811Y013197D01*
X010811Y014182D01*
X002740Y014182D01*
X002740Y005520D02*
X002740Y004536D01*
X010811Y004536D01*
X010811Y005520D01*
X002740Y005520D01*
X003030Y004047D02*
X003530Y004047D01*
X003780Y003797D01*
X004030Y004047D01*
X004530Y004047D01*
X004780Y003797D01*
X005030Y004047D01*
X005530Y004047D01*
X005780Y003797D01*
X006030Y004047D01*
X006530Y004047D01*
X006780Y003797D01*
X007030Y004047D01*
X007530Y004047D01*
X007780Y003797D01*
X007780Y003297D01*
X007530Y003047D01*
X007030Y003047D01*
X006780Y003297D01*
X006530Y003047D01*
X006030Y003047D01*
X005780Y003297D01*
X005530Y003047D01*
X005030Y003047D01*
X004780Y003297D01*
X004530Y003047D01*
X004030Y003047D01*
X003780Y003297D01*
X003530Y003047D01*
X003030Y003047D01*
X002780Y003297D01*
X002780Y003797D01*
X003030Y004047D01*
X003400Y001547D02*
X003900Y001547D01*
X004150Y001297D01*
X004150Y000797D01*
X003900Y000547D01*
X003400Y000547D01*
X003150Y000797D01*
X003150Y001297D01*
X003400Y001547D01*
X004150Y001297D02*
X004400Y001547D01*
X004900Y001547D01*
X005150Y001297D01*
X005150Y000797D01*
X004900Y000547D01*
X004400Y000547D01*
X004150Y000797D01*
X005150Y000797D02*
X005400Y000547D01*
X005900Y000547D01*
X006150Y000797D01*
X006150Y001297D01*
X006400Y001547D01*
X006900Y001547D01*
X007150Y001297D01*
X007150Y000797D01*
X006900Y000547D01*
X006400Y000547D01*
X006150Y000797D01*
X006150Y001297D02*
X005900Y001547D01*
X005400Y001547D01*
X005150Y001297D01*
X007150Y001297D02*
X007400Y001547D01*
X007900Y001547D01*
X008150Y001297D01*
X008150Y000797D01*
X007900Y000547D01*
X007400Y000547D01*
X007150Y000797D01*
X008150Y000797D02*
X008400Y000547D01*
X008900Y000547D01*
X009150Y000797D01*
X009150Y001297D01*
X008900Y001547D01*
X008400Y001547D01*
X008150Y001297D01*
X009120Y014997D02*
X009120Y017577D01*
X010420Y017577D01*
X010420Y014997D01*
X009120Y014997D01*
D13*
X009230Y020706D02*
X008708Y020706D01*
X008708Y021419D01*
X005952Y021419D01*
X005952Y020706D01*
X005330Y020706D01*
X005330Y021336D01*
X005430Y021336D01*
X005430Y023742D01*
X006149Y024608D01*
X008511Y024608D01*
X009230Y023781D01*
X009230Y021336D01*
X009330Y021336D01*
X009330Y020706D01*
X009232Y020706D01*
X008708Y020706D02*
X005952Y020706D01*
X007094Y023742D02*
X007094Y023978D01*
X007566Y023978D01*
X007566Y023742D01*
X007094Y023742D01*
X007094Y023978D02*
X007094Y024371D01*
X007566Y024371D01*
X007566Y023978D01*
D14*
X005500Y017204D02*
X005500Y016897D01*
X005270Y017127D01*
X005730Y017127D01*
X005730Y016744D02*
X005577Y016590D01*
X005577Y016667D02*
X005577Y016437D01*
X005730Y016437D02*
X005270Y016437D01*
X005270Y016667D01*
X005346Y016744D01*
X005500Y016744D01*
X005577Y016667D01*
X009202Y000747D02*
X009356Y000747D01*
X009279Y000747D02*
X009279Y000363D01*
X009202Y000287D01*
X009126Y000287D01*
X009049Y000363D01*
X009509Y000287D02*
X009509Y000747D01*
X009739Y000747D01*
X009816Y000670D01*
X009816Y000517D01*
X009739Y000440D01*
X009509Y000440D01*
X009970Y000517D02*
X010277Y000517D01*
X010200Y000287D02*
X010200Y000747D01*
X009970Y000517D01*
M02*
