G75*
G70*
%OFA0B0*%
%FSLAX24Y24*%
%IPPOS*%
%LPD*%
%AMOC8*
5,1,8,0,0,1.08239X$1,22.5*
%
%ADD10R,0.0671X0.0867*%
%ADD11R,0.0592X0.0710*%
%ADD12R,0.0635X0.0635*%
%ADD13C,0.0635*%
%ADD14R,0.0960X0.0560*%
%ADD15R,0.0946X0.1497*%
%ADD16R,0.0297X0.0552*%
%ADD17R,0.0710X0.0790*%
%ADD18R,0.0580X0.1230*%
%ADD19C,0.1029*%
%ADD20R,0.0790X0.0710*%
%ADD21R,0.0820X0.0820*%
%ADD22C,0.0820*%
%ADD23C,0.0516*%
%ADD24C,0.1740*%
%ADD25C,0.0480*%
D10*
X003201Y006717D03*
X004382Y006717D03*
D11*
X004227Y008016D03*
X003440Y008016D03*
D12*
X003232Y005028D03*
X003232Y013689D03*
D13*
X004020Y013689D03*
X004807Y013689D03*
X005595Y013689D03*
X006382Y013689D03*
X007169Y013689D03*
X007957Y013689D03*
X008744Y013689D03*
X009532Y013689D03*
X010319Y013689D03*
X010319Y005028D03*
X009532Y005028D03*
X008744Y005028D03*
X007957Y005028D03*
X007169Y005028D03*
X006382Y005028D03*
X005595Y005028D03*
X004807Y005028D03*
X004020Y005028D03*
D14*
X008550Y015377D03*
X008550Y016287D03*
X008550Y017197D03*
D15*
X010990Y016287D03*
D16*
X002414Y016395D03*
X002414Y017419D03*
X002040Y017419D03*
X001666Y017419D03*
X001666Y016395D03*
D17*
X005750Y015127D03*
X006870Y015127D03*
X007030Y011437D03*
X007030Y009837D03*
X007030Y008337D03*
X005910Y008337D03*
X005910Y009837D03*
X005910Y011437D03*
X009410Y011437D03*
X009410Y009837D03*
X009410Y008337D03*
X010530Y008337D03*
X010530Y009837D03*
X010530Y011437D03*
D18*
X007921Y018820D03*
X007921Y020643D03*
X006739Y020643D03*
X006739Y018820D03*
D19*
X005893Y022797D03*
X008767Y022797D03*
D20*
X006250Y017477D03*
X006250Y016357D03*
D21*
X004700Y019517D03*
D22*
X003700Y019617D03*
X002700Y019517D03*
X001700Y019617D03*
X003280Y003497D03*
X004280Y003597D03*
X005280Y003497D03*
X006280Y003597D03*
X007280Y003497D03*
X007650Y001097D03*
X006650Y000997D03*
X005650Y001097D03*
X004650Y000997D03*
X003650Y001097D03*
X008650Y000997D03*
D23*
X003384Y017539D03*
X002980Y020537D03*
X001230Y018057D03*
X000820Y018927D03*
X005540Y018127D03*
X005770Y018877D03*
D24*
X001745Y001711D03*
X010406Y001711D03*
X010406Y022184D03*
X001745Y022184D03*
D25*
X005970Y010537D03*
X005770Y007537D03*
X005170Y006537D03*
M02*
