G75*
G70*
%OFA0B0*%
%FSLAX24Y24*%
%IPPOS*%
%LPD*%
%AMOC8*
5,1,8,0,0,1.08239X$1,22.5*
%
%ADD10C,0.0000*%
%ADD11C,0.0560*%
%ADD12R,0.0600X0.0600*%
%ADD13C,0.0600*%
%ADD14R,0.0394X0.1969*%
%ADD15R,0.0630X0.1181*%
%ADD16C,0.1349*%
%ADD17C,0.1660*%
%ADD18C,0.0240*%
%ADD19C,0.0700*%
%ADD20C,0.0554*%
%ADD21C,0.0400*%
%ADD22C,0.0200*%
%ADD23C,0.0436*%
D10*
X000240Y000250D02*
X000240Y000260D01*
X000240Y023882D01*
X012051Y023882D01*
X012051Y000260D01*
X000240Y000260D01*
D11*
X003250Y001200D02*
X003250Y001760D01*
X004250Y001760D02*
X004250Y001200D01*
X005250Y001200D02*
X005250Y001760D01*
X006250Y001760D02*
X006250Y001200D01*
X006250Y004200D02*
X006250Y004760D01*
X005250Y004760D02*
X005250Y004200D01*
X004250Y004200D02*
X004250Y004760D01*
X003250Y004760D02*
X003250Y004200D01*
D12*
X001815Y008528D03*
X001815Y017189D03*
D13*
X002602Y017189D03*
X003390Y017189D03*
X004177Y017189D03*
X004964Y017189D03*
X005752Y017189D03*
X006539Y017189D03*
X007327Y017189D03*
X008114Y017189D03*
X008901Y017189D03*
X008901Y008528D03*
X008114Y008528D03*
X007327Y008528D03*
X006539Y008528D03*
X005752Y008528D03*
X004964Y008528D03*
X004177Y008528D03*
X003390Y008528D03*
X002602Y008528D03*
D14*
X002629Y006882D03*
X003416Y006882D03*
X004203Y006882D03*
X004991Y006882D03*
X005778Y006882D03*
X006566Y006882D03*
X007353Y006882D03*
X008140Y006882D03*
X008928Y006882D03*
X008869Y018778D03*
X008081Y018778D03*
X007294Y018778D03*
X006507Y018778D03*
X005719Y018778D03*
X004932Y018778D03*
X004144Y018778D03*
X003357Y018778D03*
X002570Y018778D03*
X001782Y018778D03*
X001841Y006882D03*
D15*
X000896Y006094D03*
X000837Y019526D03*
X009814Y019566D03*
X009873Y006134D03*
D16*
X007583Y022898D03*
X004709Y022898D03*
D17*
X001815Y022307D03*
X010476Y022307D03*
X010476Y001835D03*
X001815Y001835D03*
D18*
X002298Y002884D02*
X009993Y002884D01*
X010032Y002906D02*
X009770Y002755D01*
X009556Y002541D01*
X009405Y002279D01*
X009326Y001986D01*
X009326Y001683D01*
X009405Y001391D01*
X009556Y001129D01*
X009770Y000915D01*
X010032Y000763D01*
X010325Y000685D01*
X010628Y000685D01*
X010920Y000763D01*
X011182Y000915D01*
X011396Y001129D01*
X011548Y001391D01*
X011626Y001683D01*
X011626Y001986D01*
X011548Y002279D01*
X011396Y002541D01*
X011182Y002755D01*
X010920Y002906D01*
X010628Y002985D01*
X010325Y002985D01*
X010032Y002906D01*
X009660Y002645D02*
X002631Y002645D01*
X002735Y002541D02*
X002521Y002755D01*
X002259Y002906D01*
X001966Y002985D01*
X001663Y002985D01*
X001371Y002906D01*
X001109Y002755D01*
X000895Y002541D01*
X000743Y002279D01*
X000665Y001986D01*
X000665Y001683D01*
X000743Y001391D01*
X000895Y001129D01*
X001109Y000915D01*
X001371Y000763D01*
X001663Y000685D01*
X001966Y000685D01*
X002259Y000763D01*
X002521Y000915D01*
X002661Y001055D01*
X002741Y000860D01*
X002910Y000691D01*
X003131Y000600D01*
X003369Y000600D01*
X003590Y000691D01*
X003750Y000851D01*
X003910Y000691D01*
X004131Y000600D01*
X004369Y000600D01*
X004590Y000691D01*
X004750Y000851D01*
X004910Y000691D01*
X005131Y000600D01*
X005369Y000600D01*
X005590Y000691D01*
X005750Y000851D01*
X005910Y000691D01*
X006131Y000600D01*
X006369Y000600D01*
X006590Y000691D01*
X006759Y000860D01*
X006850Y001081D01*
X006850Y001879D01*
X006759Y002100D01*
X006590Y002269D01*
X006369Y002360D01*
X006131Y002360D01*
X005910Y002269D01*
X005750Y002109D01*
X005590Y002269D01*
X005369Y002360D01*
X005131Y002360D01*
X004910Y002269D01*
X004750Y002109D01*
X004590Y002269D01*
X004369Y002360D01*
X004131Y002360D01*
X003910Y002269D01*
X003750Y002109D01*
X003590Y002269D01*
X003369Y002360D01*
X003131Y002360D01*
X002910Y002269D01*
X002893Y002252D01*
X002886Y002279D01*
X002735Y002541D01*
X002813Y002407D02*
X009478Y002407D01*
X009375Y002168D02*
X006691Y002168D01*
X006829Y001930D02*
X009326Y001930D01*
X009326Y001691D02*
X006850Y001691D01*
X006850Y001453D02*
X009388Y001453D01*
X009507Y001214D02*
X006850Y001214D01*
X006806Y000976D02*
X009709Y000976D01*
X010130Y000737D02*
X006636Y000737D01*
X005864Y000737D02*
X005636Y000737D01*
X004864Y000737D02*
X004636Y000737D01*
X003864Y000737D02*
X003636Y000737D01*
X002864Y000737D02*
X002161Y000737D01*
X002582Y000976D02*
X002694Y000976D01*
X003691Y002168D02*
X003809Y002168D01*
X004131Y003600D02*
X003910Y003691D01*
X003750Y003851D01*
X003590Y003691D01*
X003369Y003600D01*
X003131Y003600D01*
X002910Y003691D01*
X002741Y003860D01*
X002650Y004081D01*
X002650Y004879D01*
X002741Y005100D01*
X002910Y005269D01*
X003131Y005360D01*
X003369Y005360D01*
X003590Y005269D01*
X003750Y005109D01*
X003910Y005269D01*
X004131Y005360D01*
X004369Y005360D01*
X004590Y005269D01*
X004750Y005109D01*
X004910Y005269D01*
X005131Y005360D01*
X005369Y005360D01*
X005590Y005269D01*
X005750Y005109D01*
X005910Y005269D01*
X006131Y005360D01*
X006369Y005360D01*
X006590Y005269D01*
X006759Y005100D01*
X006850Y004879D01*
X006850Y004081D01*
X006759Y003860D01*
X006590Y003691D01*
X006369Y003600D01*
X006131Y003600D01*
X005910Y003691D01*
X005750Y003851D01*
X005590Y003691D01*
X005369Y003600D01*
X005131Y003600D01*
X004910Y003691D01*
X004750Y003851D01*
X004590Y003691D01*
X004369Y003600D01*
X004131Y003600D01*
X003764Y003838D02*
X003736Y003838D01*
X003590Y005269D02*
X003910Y005269D01*
X003943Y005577D02*
X003825Y005626D01*
X003810Y005642D01*
X003794Y005626D01*
X003677Y005577D01*
X003156Y005577D01*
X003038Y005626D01*
X003022Y005642D01*
X003007Y005626D01*
X002889Y005577D01*
X002368Y005577D01*
X002251Y005626D01*
X002235Y005642D01*
X002219Y005626D01*
X002102Y005577D01*
X001581Y005577D01*
X001531Y005598D01*
X001531Y005440D01*
X001483Y005322D01*
X001393Y005232D01*
X001275Y005184D01*
X000518Y005184D01*
X000460Y005208D01*
X000460Y000480D01*
X011831Y000480D01*
X011831Y009600D01*
X011307Y009600D01*
X011307Y007227D01*
X011228Y007035D01*
X011082Y006889D01*
X010891Y006810D01*
X010499Y006810D01*
X010508Y006788D01*
X010508Y005479D01*
X010459Y005362D01*
X010369Y005272D01*
X010251Y005223D01*
X009494Y005223D01*
X009377Y005272D01*
X009287Y005362D01*
X009238Y005479D01*
X009238Y005598D01*
X009188Y005577D01*
X008667Y005577D01*
X008550Y005626D01*
X008534Y005642D01*
X008519Y005626D01*
X008401Y005577D01*
X007880Y005577D01*
X007762Y005626D01*
X007747Y005642D01*
X007731Y005626D01*
X007614Y005577D01*
X007093Y005577D01*
X006975Y005626D01*
X006959Y005642D01*
X006944Y005626D01*
X006826Y005577D01*
X006305Y005577D01*
X006188Y005626D01*
X006172Y005642D01*
X006156Y005626D01*
X006039Y005577D01*
X005518Y005577D01*
X005400Y005626D01*
X005385Y005642D01*
X005369Y005626D01*
X005251Y005577D01*
X004730Y005577D01*
X004613Y005626D01*
X004597Y005642D01*
X004582Y005626D01*
X004464Y005577D01*
X003943Y005577D01*
X004203Y006882D02*
X004203Y008528D01*
X004177Y008528D01*
X003901Y009085D02*
X003666Y009085D01*
X003741Y009053D02*
X003513Y009148D01*
X003266Y009148D01*
X003038Y009053D01*
X002996Y009011D01*
X002953Y009053D01*
X002726Y009148D01*
X002479Y009148D01*
X002315Y009080D01*
X002296Y009099D01*
X002178Y009148D01*
X001451Y009148D01*
X001334Y009099D01*
X001244Y009009D01*
X001195Y008891D01*
X001195Y008164D01*
X001244Y008046D01*
X001334Y007956D01*
X001335Y007956D01*
X001324Y007930D01*
X001324Y006984D01*
X001275Y007005D01*
X000518Y007005D01*
X000460Y006981D01*
X000460Y018616D01*
X001216Y018616D01*
X001333Y018665D01*
X001423Y018755D01*
X001472Y018872D01*
X001472Y020181D01*
X001423Y020298D01*
X001333Y020388D01*
X001216Y020437D01*
X000460Y020437D01*
X000460Y023662D01*
X004066Y023662D01*
X003865Y023461D01*
X003714Y023096D01*
X003714Y022700D01*
X003865Y022335D01*
X004145Y022055D01*
X004511Y021903D01*
X004906Y021903D01*
X005272Y022055D01*
X005552Y022335D01*
X005703Y022700D01*
X005703Y023096D01*
X005552Y023461D01*
X005351Y023662D01*
X006940Y023662D01*
X006739Y023461D01*
X006588Y023096D01*
X006588Y022700D01*
X006739Y022335D01*
X007019Y022055D01*
X007385Y021903D01*
X007780Y021903D01*
X008146Y022055D01*
X008426Y022335D01*
X008577Y022700D01*
X008577Y023096D01*
X008426Y023461D01*
X008225Y023662D01*
X011831Y023662D01*
X011831Y016550D01*
X011410Y016550D01*
X011410Y016825D01*
X011487Y017011D01*
X011487Y017249D01*
X011396Y017468D01*
X011228Y017636D01*
X011009Y017727D01*
X010771Y017727D01*
X010728Y017709D01*
X009421Y017709D01*
X009421Y018661D01*
X009435Y018655D01*
X010192Y018655D01*
X010310Y018704D01*
X010400Y018794D01*
X010449Y018912D01*
X010449Y020220D01*
X010400Y020338D01*
X010310Y020428D01*
X010192Y020476D01*
X009435Y020476D01*
X009317Y020428D01*
X009227Y020338D01*
X009179Y020220D01*
X009179Y020062D01*
X009129Y020083D01*
X008608Y020083D01*
X008491Y020034D01*
X008475Y020018D01*
X008459Y020034D01*
X008342Y020083D01*
X007821Y020083D01*
X007703Y020034D01*
X007688Y020018D01*
X007672Y020034D01*
X007554Y020083D01*
X007033Y020083D01*
X006916Y020034D01*
X006900Y020018D01*
X006885Y020034D01*
X006767Y020083D01*
X006246Y020083D01*
X006128Y020034D01*
X006113Y020018D01*
X006097Y020034D01*
X005980Y020083D01*
X005459Y020083D01*
X005341Y020034D01*
X005325Y020018D01*
X005310Y020034D01*
X005192Y020083D01*
X004671Y020083D01*
X004554Y020034D01*
X004538Y020018D01*
X004522Y020034D01*
X004405Y020083D01*
X003884Y020083D01*
X003766Y020034D01*
X003751Y020018D01*
X003735Y020034D01*
X003617Y020083D01*
X003096Y020083D01*
X002979Y020034D01*
X002963Y020018D01*
X002948Y020034D01*
X002830Y020083D01*
X002309Y020083D01*
X002191Y020034D01*
X002101Y019944D01*
X002053Y019826D01*
X002053Y018889D01*
X002050Y018882D01*
X002050Y017475D01*
X001982Y017312D01*
X001982Y017066D01*
X002077Y016838D01*
X002251Y016664D01*
X002479Y016569D01*
X002726Y016569D01*
X002953Y016664D01*
X002996Y016706D01*
X003038Y016664D01*
X003266Y016569D01*
X003513Y016569D01*
X003741Y016664D01*
X003783Y016706D01*
X003826Y016664D01*
X004054Y016569D01*
X004300Y016569D01*
X004528Y016664D01*
X004571Y016706D01*
X004613Y016664D01*
X004841Y016569D01*
X005088Y016569D01*
X005316Y016664D01*
X005358Y016706D01*
X005401Y016664D01*
X005628Y016569D01*
X005875Y016569D01*
X006103Y016664D01*
X006146Y016706D01*
X006188Y016664D01*
X006416Y016569D01*
X006663Y016569D01*
X006890Y016664D01*
X006933Y016706D01*
X006975Y016664D01*
X007203Y016569D01*
X007450Y016569D01*
X007678Y016664D01*
X007720Y016706D01*
X007763Y016664D01*
X007991Y016569D01*
X008237Y016569D01*
X008465Y016664D01*
X008508Y016706D01*
X008550Y016664D01*
X008778Y016569D01*
X009025Y016569D01*
X009253Y016664D01*
X009258Y016669D01*
X010370Y016669D01*
X010370Y016550D01*
X004390Y016550D01*
X004390Y009600D01*
X010267Y009600D01*
X010267Y007850D01*
X010085Y007850D01*
X009899Y007927D01*
X009661Y007927D01*
X009445Y007837D01*
X009445Y007930D01*
X009396Y008047D01*
X009368Y008075D01*
X009368Y008117D01*
X009427Y008177D01*
X009521Y008404D01*
X009521Y008651D01*
X009427Y008879D01*
X009253Y009053D01*
X009025Y009148D01*
X008778Y009148D01*
X008550Y009053D01*
X008508Y009011D01*
X008465Y009053D01*
X008237Y009148D01*
X007991Y009148D01*
X007763Y009053D01*
X007720Y009011D01*
X007678Y009053D01*
X007450Y009148D01*
X007203Y009148D01*
X006975Y009053D01*
X006933Y009011D01*
X006890Y009053D01*
X006663Y009148D01*
X006416Y009148D01*
X006188Y009053D01*
X006146Y009011D01*
X006103Y009053D01*
X005875Y009148D01*
X005628Y009148D01*
X005401Y009053D01*
X005358Y009011D01*
X005316Y009053D01*
X005088Y009148D01*
X004841Y009148D01*
X004613Y009053D01*
X004571Y009011D01*
X004528Y009053D01*
X004300Y009148D01*
X004054Y009148D01*
X003826Y009053D01*
X003783Y009011D01*
X003741Y009053D01*
X003416Y008528D02*
X003416Y006882D01*
X002629Y006882D02*
X002629Y008528D01*
X002602Y008528D01*
X002878Y009085D02*
X003114Y009085D01*
X003390Y008528D02*
X003416Y008528D01*
X004390Y009800D02*
X000460Y009800D01*
X000460Y009562D02*
X010267Y009562D01*
X010267Y009323D02*
X000460Y009323D01*
X000460Y009085D02*
X001319Y009085D01*
X001195Y008846D02*
X000460Y008846D01*
X000460Y008608D02*
X001195Y008608D01*
X001195Y008369D02*
X000460Y008369D01*
X000460Y008131D02*
X001209Y008131D01*
X001324Y007892D02*
X000460Y007892D01*
X000460Y007654D02*
X001324Y007654D01*
X001324Y007415D02*
X000460Y007415D01*
X000460Y007177D02*
X001324Y007177D01*
X001841Y006882D02*
X001841Y008528D01*
X001815Y008528D01*
X002311Y009085D02*
X002326Y009085D01*
X001531Y005507D02*
X009238Y005507D01*
X009384Y005269D02*
X006590Y005269D01*
X006788Y005030D02*
X011831Y005030D01*
X011831Y004792D02*
X006850Y004792D01*
X006850Y004553D02*
X011831Y004553D01*
X011831Y004315D02*
X006850Y004315D01*
X006848Y004076D02*
X011831Y004076D01*
X011831Y003838D02*
X006736Y003838D01*
X005910Y005269D02*
X005590Y005269D01*
X004910Y005269D02*
X004590Y005269D01*
X004736Y003838D02*
X004764Y003838D01*
X004809Y002168D02*
X004691Y002168D01*
X005691Y002168D02*
X005809Y002168D01*
X005764Y003838D02*
X005736Y003838D01*
X005778Y006882D02*
X005778Y008528D01*
X005752Y008528D01*
X006028Y009085D02*
X006263Y009085D01*
X006539Y008528D02*
X006566Y008528D01*
X006566Y006882D01*
X007353Y006882D02*
X007353Y008528D01*
X007327Y008528D01*
X007603Y009085D02*
X007838Y009085D01*
X008114Y008528D02*
X008140Y008528D01*
X008140Y006882D01*
X008928Y006882D02*
X008928Y008528D01*
X008901Y008528D01*
X009177Y009085D02*
X010267Y009085D01*
X010267Y008846D02*
X009441Y008846D01*
X009521Y008608D02*
X010267Y008608D01*
X010267Y008369D02*
X009507Y008369D01*
X009381Y008131D02*
X010267Y008131D01*
X010267Y007892D02*
X009984Y007892D01*
X009576Y007892D02*
X009445Y007892D01*
X008625Y009085D02*
X008390Y009085D01*
X007051Y009085D02*
X006815Y009085D01*
X005476Y009085D02*
X005240Y009085D01*
X004991Y008528D02*
X004991Y006882D01*
X004964Y008528D02*
X004991Y008528D01*
X004688Y009085D02*
X004453Y009085D01*
X004390Y010039D02*
X000460Y010039D01*
X000460Y010277D02*
X004390Y010277D01*
X004390Y010516D02*
X000460Y010516D01*
X000460Y010754D02*
X004390Y010754D01*
X004390Y010993D02*
X000460Y010993D01*
X000460Y011231D02*
X004390Y011231D01*
X004390Y011470D02*
X000460Y011470D01*
X000460Y011708D02*
X004390Y011708D01*
X004390Y011947D02*
X000460Y011947D01*
X000460Y012185D02*
X004390Y012185D01*
X004390Y012424D02*
X000460Y012424D01*
X000460Y012662D02*
X004390Y012662D01*
X004390Y012901D02*
X000460Y012901D01*
X000460Y013139D02*
X004390Y013139D01*
X004390Y013378D02*
X000460Y013378D01*
X000460Y013616D02*
X004390Y013616D01*
X004390Y013855D02*
X000460Y013855D01*
X000460Y014093D02*
X004390Y014093D01*
X004390Y014332D02*
X000460Y014332D01*
X000460Y014570D02*
X004390Y014570D01*
X004390Y014809D02*
X000460Y014809D01*
X000460Y015047D02*
X004390Y015047D01*
X004390Y015286D02*
X000460Y015286D01*
X000460Y015524D02*
X004390Y015524D01*
X004390Y015763D02*
X000460Y015763D01*
X000460Y016001D02*
X004390Y016001D01*
X004390Y016240D02*
X000460Y016240D01*
X000460Y016478D02*
X004390Y016478D01*
X004470Y020056D02*
X004606Y020056D01*
X005258Y020056D02*
X005393Y020056D01*
X006045Y020056D02*
X006181Y020056D01*
X006832Y020056D02*
X006968Y020056D01*
X007620Y020056D02*
X007755Y020056D01*
X008407Y020056D02*
X008543Y020056D01*
X009209Y020294D02*
X001425Y020294D01*
X001472Y020056D02*
X002244Y020056D01*
X002053Y019817D02*
X001472Y019817D01*
X001472Y019579D02*
X002053Y019579D01*
X002053Y019340D02*
X001472Y019340D01*
X001472Y019102D02*
X002053Y019102D01*
X002050Y018863D02*
X001468Y018863D01*
X001237Y018625D02*
X002050Y018625D01*
X002050Y018386D02*
X000460Y018386D01*
X000460Y018148D02*
X002050Y018148D01*
X002050Y017909D02*
X000460Y017909D01*
X000460Y017671D02*
X002050Y017671D01*
X002032Y017432D02*
X000460Y017432D01*
X000460Y017194D02*
X001982Y017194D01*
X002028Y016955D02*
X000460Y016955D01*
X000460Y016717D02*
X002198Y016717D01*
X002895Y020056D02*
X003031Y020056D01*
X003683Y020056D02*
X003818Y020056D01*
X002735Y021601D02*
X002886Y021863D01*
X002965Y022156D01*
X002965Y022459D01*
X002886Y022751D01*
X002735Y023013D01*
X002521Y023227D01*
X002259Y023379D01*
X001966Y023457D01*
X001663Y023457D01*
X001371Y023379D01*
X001109Y023227D01*
X000895Y023013D01*
X000743Y022751D01*
X000665Y022459D01*
X000665Y022156D01*
X000743Y021863D01*
X000895Y021601D01*
X001109Y021387D01*
X001371Y021236D01*
X001663Y021157D01*
X001966Y021157D01*
X002259Y021236D01*
X002521Y021387D01*
X002735Y021601D01*
X002806Y021725D02*
X009485Y021725D01*
X009556Y021601D02*
X009405Y021863D01*
X009326Y022156D01*
X009326Y022459D01*
X009405Y022751D01*
X009556Y023013D01*
X009770Y023227D01*
X010032Y023379D01*
X010325Y023457D01*
X010628Y023457D01*
X010920Y023379D01*
X011182Y023227D01*
X011396Y023013D01*
X011548Y022751D01*
X011626Y022459D01*
X011626Y022156D01*
X011548Y021863D01*
X011396Y021601D01*
X011182Y021387D01*
X010920Y021236D01*
X010628Y021157D01*
X010325Y021157D01*
X010032Y021236D01*
X009770Y021387D01*
X009556Y021601D01*
X009671Y021487D02*
X002620Y021487D01*
X002913Y021964D02*
X004366Y021964D01*
X003998Y022202D02*
X002965Y022202D01*
X002965Y022441D02*
X003822Y022441D01*
X003723Y022679D02*
X002906Y022679D01*
X002790Y022918D02*
X003714Y022918D01*
X003739Y023156D02*
X002592Y023156D01*
X002200Y023395D02*
X003838Y023395D01*
X004037Y023633D02*
X000460Y023633D01*
X000460Y023395D02*
X001430Y023395D01*
X001037Y023156D02*
X000460Y023156D01*
X000460Y022918D02*
X000839Y022918D01*
X000724Y022679D02*
X000460Y022679D01*
X000460Y022441D02*
X000665Y022441D01*
X000665Y022202D02*
X000460Y022202D01*
X000460Y021964D02*
X000716Y021964D01*
X000823Y021725D02*
X000460Y021725D01*
X000460Y021487D02*
X001009Y021487D01*
X001350Y021248D02*
X000460Y021248D01*
X000460Y021010D02*
X011831Y021010D01*
X011831Y021248D02*
X010941Y021248D01*
X011282Y021487D02*
X011831Y021487D01*
X011831Y021725D02*
X011468Y021725D01*
X011575Y021964D02*
X011831Y021964D01*
X011831Y022202D02*
X011626Y022202D01*
X011626Y022441D02*
X011831Y022441D01*
X011831Y022679D02*
X011567Y022679D01*
X011452Y022918D02*
X011831Y022918D01*
X011831Y023156D02*
X011254Y023156D01*
X010861Y023395D02*
X011831Y023395D01*
X011831Y023633D02*
X008254Y023633D01*
X008453Y023395D02*
X010091Y023395D01*
X009699Y023156D02*
X008552Y023156D01*
X008577Y022918D02*
X009501Y022918D01*
X009385Y022679D02*
X008568Y022679D01*
X008469Y022441D02*
X009326Y022441D01*
X009326Y022202D02*
X008293Y022202D01*
X007926Y021964D02*
X009378Y021964D01*
X010011Y021248D02*
X002280Y021248D01*
X000460Y020771D02*
X011831Y020771D01*
X011831Y020533D02*
X000460Y020533D01*
X005051Y021964D02*
X007240Y021964D01*
X006872Y022202D02*
X005419Y022202D01*
X005595Y022441D02*
X006696Y022441D01*
X006597Y022679D02*
X005694Y022679D01*
X005703Y022918D02*
X006588Y022918D01*
X006613Y023156D02*
X005678Y023156D01*
X005579Y023395D02*
X006712Y023395D01*
X006911Y023633D02*
X005380Y023633D01*
X009421Y018625D02*
X011831Y018625D01*
X011831Y018863D02*
X010428Y018863D01*
X010449Y019102D02*
X011831Y019102D01*
X011831Y019340D02*
X010449Y019340D01*
X010449Y019579D02*
X011831Y019579D01*
X011831Y019817D02*
X010449Y019817D01*
X010449Y020056D02*
X011831Y020056D01*
X011831Y020294D02*
X010418Y020294D01*
X009421Y018386D02*
X011831Y018386D01*
X011831Y018148D02*
X009421Y018148D01*
X009421Y017909D02*
X011831Y017909D01*
X011831Y017671D02*
X011146Y017671D01*
X011411Y017432D02*
X011831Y017432D01*
X011831Y017194D02*
X011487Y017194D01*
X011464Y016955D02*
X011831Y016955D01*
X011831Y016717D02*
X011410Y016717D01*
X011307Y009562D02*
X011831Y009562D01*
X011831Y009323D02*
X011307Y009323D01*
X011307Y009085D02*
X011831Y009085D01*
X011831Y008846D02*
X011307Y008846D01*
X011307Y008608D02*
X011831Y008608D01*
X011831Y008369D02*
X011307Y008369D01*
X011307Y008131D02*
X011831Y008131D01*
X011831Y007892D02*
X011307Y007892D01*
X011307Y007654D02*
X011831Y007654D01*
X011831Y007415D02*
X011307Y007415D01*
X011287Y007177D02*
X011831Y007177D01*
X011831Y006938D02*
X011131Y006938D01*
X010508Y006700D02*
X011831Y006700D01*
X011831Y006461D02*
X010508Y006461D01*
X010508Y006223D02*
X011831Y006223D01*
X011831Y005984D02*
X010508Y005984D01*
X010508Y005746D02*
X011831Y005746D01*
X011831Y005507D02*
X010508Y005507D01*
X010361Y005269D02*
X011831Y005269D01*
X011831Y003599D02*
X000460Y003599D01*
X000460Y003361D02*
X011831Y003361D01*
X011831Y003122D02*
X000460Y003122D01*
X000460Y002884D02*
X001331Y002884D01*
X000999Y002645D02*
X000460Y002645D01*
X000460Y002407D02*
X000817Y002407D01*
X000714Y002168D02*
X000460Y002168D01*
X000460Y001930D02*
X000665Y001930D01*
X000665Y001691D02*
X000460Y001691D01*
X000460Y001453D02*
X000727Y001453D01*
X000845Y001214D02*
X000460Y001214D01*
X000460Y000976D02*
X001048Y000976D01*
X001469Y000737D02*
X000460Y000737D01*
X000460Y000499D02*
X011831Y000499D01*
X011831Y000737D02*
X010822Y000737D01*
X011243Y000976D02*
X011831Y000976D01*
X011831Y001214D02*
X011446Y001214D01*
X011564Y001453D02*
X011831Y001453D01*
X011831Y001691D02*
X011626Y001691D01*
X011626Y001930D02*
X011831Y001930D01*
X011831Y002168D02*
X011577Y002168D01*
X011474Y002407D02*
X011831Y002407D01*
X011831Y002645D02*
X011292Y002645D01*
X010960Y002884D02*
X011831Y002884D01*
X002910Y005269D02*
X001429Y005269D01*
X000460Y005030D02*
X002712Y005030D01*
X002650Y004792D02*
X000460Y004792D01*
X000460Y004553D02*
X002650Y004553D01*
X002650Y004315D02*
X000460Y004315D01*
X000460Y004076D02*
X002652Y004076D01*
X002764Y003838D02*
X000460Y003838D01*
D19*
X010000Y008600D03*
X011350Y006660D03*
X011600Y008580D03*
D20*
X009780Y007330D03*
X010890Y017130D03*
D21*
X010890Y010496D01*
X010787Y009970D01*
X010787Y007330D01*
X009780Y007330D01*
X010890Y017130D02*
X010890Y017189D01*
X008901Y017189D01*
X008901Y018778D01*
X008869Y018778D01*
X008081Y018778D02*
X008081Y017189D01*
X008114Y017189D01*
X007327Y017189D02*
X007294Y017189D01*
X007294Y018778D01*
X006507Y018778D02*
X006507Y017189D01*
X006539Y017189D01*
X005752Y017189D02*
X005719Y017189D01*
X005719Y018778D01*
X004964Y017189D02*
X004932Y017189D01*
X004932Y018778D01*
X004144Y018778D02*
X004144Y017189D01*
X004177Y017189D01*
X002570Y017189D02*
X002570Y018778D01*
D22*
X005060Y015790D02*
X011851Y015790D01*
X011851Y010080D01*
X005060Y010080D01*
X005060Y015790D01*
X005060Y015743D02*
X011851Y015743D01*
X011851Y015545D02*
X005060Y015545D01*
X005060Y015346D02*
X011851Y015346D01*
X011851Y015148D02*
X005060Y015148D01*
X005060Y014949D02*
X011851Y014949D01*
X011851Y014751D02*
X005060Y014751D01*
X005060Y014552D02*
X011851Y014552D01*
X011851Y014354D02*
X005060Y014354D01*
X005060Y014155D02*
X011851Y014155D01*
X011851Y013957D02*
X005060Y013957D01*
X005060Y013758D02*
X011851Y013758D01*
X011851Y013560D02*
X005060Y013560D01*
X005060Y013361D02*
X011851Y013361D01*
X011851Y013163D02*
X005060Y013163D01*
X005060Y012964D02*
X011851Y012964D01*
X011851Y012766D02*
X005060Y012766D01*
X005060Y012567D02*
X011851Y012567D01*
X011851Y012369D02*
X005060Y012369D01*
X005060Y012170D02*
X011851Y012170D01*
X011851Y011972D02*
X005060Y011972D01*
X005060Y011773D02*
X011851Y011773D01*
X011851Y011575D02*
X005060Y011575D01*
X005060Y011376D02*
X011851Y011376D01*
X011851Y011178D02*
X005060Y011178D01*
X005060Y010979D02*
X011851Y010979D01*
X011851Y010781D02*
X005060Y010781D01*
X005060Y010582D02*
X011851Y010582D01*
X011851Y010384D02*
X005060Y010384D01*
X005060Y010185D02*
X011851Y010185D01*
D23*
X010340Y010490D03*
X006820Y011030D03*
X006160Y013020D03*
X006770Y015030D03*
M02*
