G75*
G70*
%OFA0B0*%
%FSLAX24Y24*%
%IPPOS*%
%LPD*%
%AMOC8*
5,1,8,0,0,1.08239X$1,22.5*
%
%ADD10C,0.0000*%
%ADD11C,0.0080*%
%ADD12C,0.0050*%
%ADD13C,0.0120*%
%ADD14C,0.0030*%
%ADD15C,0.0100*%
D10*
X000170Y000127D02*
X000170Y000137D01*
X011970Y000137D01*
X011970Y023757D01*
X000170Y023757D01*
X000170Y000137D01*
X005419Y022797D02*
X005421Y022840D01*
X005427Y022883D01*
X005437Y022925D01*
X005450Y022966D01*
X005467Y023005D01*
X005488Y023043D01*
X005512Y023079D01*
X005539Y023113D01*
X005569Y023143D01*
X005602Y023171D01*
X005638Y023196D01*
X005675Y023218D01*
X005714Y023236D01*
X005755Y023250D01*
X005797Y023261D01*
X005839Y023268D01*
X005882Y023271D01*
X005925Y023270D01*
X005968Y023265D01*
X006010Y023256D01*
X006052Y023244D01*
X006092Y023227D01*
X006130Y023207D01*
X006166Y023184D01*
X006200Y023158D01*
X006232Y023128D01*
X006261Y023096D01*
X006286Y023061D01*
X006309Y023025D01*
X006328Y022986D01*
X006343Y022946D01*
X006355Y022904D01*
X006363Y022862D01*
X006367Y022819D01*
X006367Y022775D01*
X006363Y022732D01*
X006355Y022690D01*
X006343Y022648D01*
X006328Y022608D01*
X006309Y022569D01*
X006286Y022533D01*
X006261Y022498D01*
X006232Y022466D01*
X006200Y022436D01*
X006166Y022410D01*
X006130Y022387D01*
X006092Y022367D01*
X006052Y022350D01*
X006010Y022338D01*
X005968Y022329D01*
X005925Y022324D01*
X005882Y022323D01*
X005839Y022326D01*
X005797Y022333D01*
X005755Y022344D01*
X005714Y022358D01*
X005675Y022376D01*
X005638Y022398D01*
X005602Y022423D01*
X005569Y022451D01*
X005539Y022481D01*
X005512Y022515D01*
X005488Y022551D01*
X005467Y022589D01*
X005450Y022628D01*
X005437Y022669D01*
X005427Y022711D01*
X005421Y022754D01*
X005419Y022797D01*
X008293Y022797D02*
X008295Y022840D01*
X008301Y022883D01*
X008311Y022925D01*
X008324Y022966D01*
X008341Y023005D01*
X008362Y023043D01*
X008386Y023079D01*
X008413Y023113D01*
X008443Y023143D01*
X008476Y023171D01*
X008512Y023196D01*
X008549Y023218D01*
X008588Y023236D01*
X008629Y023250D01*
X008671Y023261D01*
X008713Y023268D01*
X008756Y023271D01*
X008799Y023270D01*
X008842Y023265D01*
X008884Y023256D01*
X008926Y023244D01*
X008966Y023227D01*
X009004Y023207D01*
X009040Y023184D01*
X009074Y023158D01*
X009106Y023128D01*
X009135Y023096D01*
X009160Y023061D01*
X009183Y023025D01*
X009202Y022986D01*
X009217Y022946D01*
X009229Y022904D01*
X009237Y022862D01*
X009241Y022819D01*
X009241Y022775D01*
X009237Y022732D01*
X009229Y022690D01*
X009217Y022648D01*
X009202Y022608D01*
X009183Y022569D01*
X009160Y022533D01*
X009135Y022498D01*
X009106Y022466D01*
X009074Y022436D01*
X009040Y022410D01*
X009004Y022387D01*
X008966Y022367D01*
X008926Y022350D01*
X008884Y022338D01*
X008842Y022329D01*
X008799Y022324D01*
X008756Y022323D01*
X008713Y022326D01*
X008671Y022333D01*
X008629Y022344D01*
X008588Y022358D01*
X008549Y022376D01*
X008512Y022398D01*
X008476Y022423D01*
X008443Y022451D01*
X008413Y022481D01*
X008386Y022515D01*
X008362Y022551D01*
X008341Y022589D01*
X008324Y022628D01*
X008311Y022669D01*
X008301Y022711D01*
X008295Y022754D01*
X008293Y022797D01*
X011970Y023757D02*
X011981Y023759D01*
D11*
X010420Y017577D02*
X009120Y017577D01*
X009120Y014997D01*
X010420Y014997D01*
X010420Y017577D01*
X011585Y016437D02*
X011825Y016437D01*
X011825Y016357D02*
X011825Y016517D01*
X011665Y016357D02*
X011585Y016437D01*
X011625Y016222D02*
X011585Y016182D01*
X011585Y016102D01*
X011625Y016062D01*
X011785Y016062D01*
X011825Y016102D01*
X011825Y016182D01*
X011785Y016222D01*
X011625Y016222D01*
X011745Y016142D02*
X011825Y016222D01*
X010811Y014182D02*
X010811Y013197D01*
X002740Y013197D01*
X002740Y014182D01*
X010811Y014182D01*
X010811Y013197D01*
X002740Y013197D01*
X002740Y014182D01*
X010811Y014182D01*
X011211Y014021D02*
X011211Y013941D01*
X011251Y013901D01*
X011211Y014021D02*
X011251Y014061D01*
X011291Y014061D01*
X011451Y013901D01*
X011451Y014061D01*
X011331Y013767D02*
X011371Y013727D01*
X011371Y013607D01*
X011451Y013607D02*
X011211Y013607D01*
X011211Y013727D01*
X011251Y013767D01*
X011331Y013767D01*
X011211Y013472D02*
X011211Y013392D01*
X011211Y013432D02*
X011411Y013432D01*
X011451Y013392D01*
X011451Y013352D01*
X011411Y013312D01*
X010811Y005520D02*
X010811Y004536D01*
X002740Y004536D01*
X002740Y005520D01*
X010811Y005520D01*
X010811Y004536D01*
X002740Y004536D01*
X002740Y005520D01*
X010811Y005520D01*
X011086Y005386D02*
X011327Y005386D01*
X011327Y005306D02*
X011327Y005466D01*
X011166Y005306D02*
X011086Y005386D01*
X011126Y005171D02*
X011086Y005131D01*
X011086Y005011D01*
X011327Y005011D01*
X011247Y005011D02*
X011247Y005131D01*
X011207Y005171D01*
X011126Y005171D01*
X011086Y004877D02*
X011086Y004797D01*
X011086Y004837D02*
X011287Y004837D01*
X011327Y004797D01*
X011327Y004757D01*
X011287Y004717D01*
X008900Y001547D02*
X009150Y001297D01*
X009150Y000797D01*
X008900Y000547D01*
X008400Y000547D01*
X008150Y000797D01*
X008150Y001297D01*
X008400Y001547D01*
X008900Y001547D01*
X008150Y001297D02*
X007900Y001547D01*
X007400Y001547D01*
X007150Y001297D01*
X007150Y000797D01*
X006900Y000547D01*
X006400Y000547D01*
X006150Y000797D01*
X006150Y001297D01*
X006400Y001547D01*
X006900Y001547D01*
X007150Y001297D01*
X007150Y000797D02*
X007400Y000547D01*
X007900Y000547D01*
X008150Y000797D01*
X007610Y003037D02*
X007110Y003037D01*
X006860Y003287D01*
X006610Y003037D01*
X006110Y003037D01*
X005860Y003287D01*
X005610Y003037D01*
X005110Y003037D01*
X004860Y003287D01*
X004610Y003037D01*
X004110Y003037D01*
X003860Y003287D01*
X003610Y003037D01*
X003110Y003037D01*
X002860Y003287D01*
X002860Y003787D01*
X003110Y004037D01*
X003610Y004037D01*
X003860Y003787D01*
X004110Y004037D01*
X004610Y004037D01*
X004860Y003787D01*
X005110Y004037D01*
X005610Y004037D01*
X005860Y003787D01*
X006110Y004037D01*
X006610Y004037D01*
X006860Y003787D01*
X007110Y004037D01*
X007610Y004037D01*
X007860Y003787D01*
X007860Y003287D01*
X007610Y003037D01*
X007530Y003047D02*
X007780Y003297D01*
X007780Y003797D01*
X007530Y004047D01*
X007030Y004047D01*
X006780Y003797D01*
X006530Y004047D01*
X006030Y004047D01*
X005780Y003797D01*
X005530Y004047D01*
X005030Y004047D01*
X004780Y003797D01*
X004530Y004047D01*
X004030Y004047D01*
X003780Y003797D01*
X003530Y004047D01*
X003030Y004047D01*
X002780Y003797D01*
X002780Y003297D01*
X003030Y003047D01*
X003530Y003047D01*
X003780Y003297D01*
X004030Y003047D01*
X004530Y003047D01*
X004780Y003297D01*
X005030Y003047D01*
X005530Y003047D01*
X005780Y003297D01*
X006030Y003047D01*
X006530Y003047D01*
X006780Y003297D01*
X007030Y003047D01*
X007530Y003047D01*
X005900Y001547D02*
X006150Y001297D01*
X005900Y001547D02*
X005400Y001547D01*
X005150Y001297D01*
X005150Y000797D01*
X004900Y000547D01*
X004400Y000547D01*
X004150Y000797D01*
X004150Y001297D01*
X004400Y001547D01*
X004900Y001547D01*
X005150Y001297D01*
X005150Y000797D02*
X005400Y000547D01*
X005900Y000547D01*
X006150Y000797D01*
X005875Y002467D02*
X005715Y002467D01*
X005795Y002467D02*
X005795Y002707D01*
X005715Y002627D01*
X005581Y002547D02*
X005581Y002707D01*
X005581Y002547D02*
X005501Y002467D01*
X005421Y002547D01*
X005421Y002707D01*
X005286Y002667D02*
X005246Y002707D01*
X005166Y002707D01*
X005126Y002667D01*
X005126Y002627D01*
X005166Y002587D01*
X005246Y002587D01*
X005286Y002547D01*
X005286Y002507D01*
X005246Y002467D01*
X005166Y002467D01*
X005126Y002507D01*
X004150Y001297D02*
X003900Y001547D01*
X003400Y001547D01*
X003150Y001297D01*
X003150Y000797D01*
X003400Y000547D01*
X003900Y000547D01*
X004150Y000797D01*
X002916Y004028D02*
X002916Y004268D01*
X002836Y004188D01*
X002756Y004268D01*
X002756Y004028D01*
X002621Y004028D02*
X002621Y004268D01*
X002541Y004188D01*
X002461Y004268D01*
X002461Y004028D01*
X002326Y004028D02*
X002166Y004028D01*
X002326Y004188D01*
X002326Y004228D01*
X002286Y004268D01*
X002206Y004268D01*
X002166Y004228D01*
X002032Y004228D02*
X002032Y004068D01*
X001992Y004028D01*
X001912Y004028D01*
X001872Y004068D01*
X002032Y004228D01*
X001992Y004268D01*
X001912Y004268D01*
X001872Y004228D01*
X001872Y004068D01*
X001737Y004028D02*
X001577Y004028D01*
X001657Y004028D02*
X001657Y004268D01*
X001577Y004188D01*
X001442Y004268D02*
X001442Y004028D01*
X001282Y004028D02*
X001282Y004268D01*
X001362Y004188D01*
X001442Y004268D01*
X002446Y006388D02*
X002406Y006428D01*
X002406Y006508D01*
X002446Y006548D01*
X002486Y006683D02*
X002406Y006763D01*
X002647Y006763D01*
X002647Y006683D02*
X002647Y006843D01*
X002607Y006977D02*
X002567Y006977D01*
X002527Y007018D01*
X002527Y007098D01*
X002567Y007138D01*
X002607Y007138D01*
X002647Y007098D01*
X002647Y007018D01*
X002607Y006977D01*
X002527Y007018D02*
X002486Y006977D01*
X002446Y006977D01*
X002406Y007018D01*
X002406Y007098D01*
X002446Y007138D01*
X002486Y007138D01*
X002527Y007098D01*
X002607Y006548D02*
X002647Y006508D01*
X002647Y006428D01*
X002607Y006388D01*
X002446Y006388D01*
X002746Y007687D02*
X002906Y007687D01*
X002946Y007727D01*
X002946Y007807D01*
X002906Y007847D01*
X002946Y007981D02*
X002946Y008141D01*
X002946Y008061D02*
X002706Y008061D01*
X002786Y007981D01*
X002746Y007847D02*
X002706Y007807D01*
X002706Y007727D01*
X002746Y007687D01*
X002746Y008276D02*
X002786Y008276D01*
X002826Y008316D01*
X002826Y008436D01*
X002906Y008436D02*
X002746Y008436D01*
X002706Y008396D01*
X002706Y008316D01*
X002746Y008276D01*
X002906Y008276D02*
X002946Y008316D01*
X002946Y008396D01*
X002906Y008436D01*
X003544Y008556D02*
X003584Y008556D01*
X003584Y008596D01*
X003544Y008596D01*
X003544Y008556D01*
X003692Y008596D02*
X003692Y008756D01*
X003732Y008796D01*
X003812Y008796D01*
X003852Y008756D01*
X003692Y008596D01*
X003732Y008556D01*
X003812Y008556D01*
X003852Y008596D01*
X003852Y008756D01*
X003986Y008716D02*
X004066Y008796D01*
X004066Y008556D01*
X003986Y008556D02*
X004146Y008556D01*
X004281Y008596D02*
X004321Y008556D01*
X004441Y008556D01*
X004441Y008716D01*
X004576Y008676D02*
X004656Y008676D01*
X004576Y008796D02*
X004736Y008796D01*
X004576Y008796D02*
X004576Y008556D01*
X004281Y008596D02*
X004281Y008716D01*
X004264Y006143D02*
X004424Y006143D01*
X004344Y006023D02*
X004264Y006023D01*
X004264Y005903D02*
X004264Y006143D01*
X004129Y006063D02*
X004129Y005903D01*
X004009Y005903D01*
X003969Y005943D01*
X003969Y006063D01*
X003835Y006103D02*
X003675Y005943D01*
X003715Y005903D01*
X003795Y005903D01*
X003835Y005943D01*
X003835Y006103D01*
X003795Y006143D01*
X003715Y006143D01*
X003675Y006103D01*
X003675Y005943D01*
X003540Y005903D02*
X003380Y005903D01*
X003460Y005903D02*
X003460Y006143D01*
X003380Y006063D01*
X001910Y008307D02*
X001750Y008387D01*
X001710Y008521D02*
X001670Y008561D01*
X001670Y008641D01*
X001710Y008681D01*
X001750Y008681D01*
X001910Y008521D01*
X001910Y008681D01*
X001870Y008816D02*
X001710Y008976D01*
X001870Y008976D01*
X001910Y008936D01*
X001910Y008856D01*
X001870Y008816D01*
X001710Y008816D01*
X001670Y008856D01*
X001670Y008936D01*
X001710Y008976D01*
X001750Y009111D02*
X001670Y009191D01*
X001910Y009191D01*
X001910Y009111D02*
X001910Y009271D01*
X001870Y009405D02*
X001910Y009445D01*
X001910Y009525D01*
X001870Y009565D01*
X001830Y009565D01*
X001790Y009525D01*
X001790Y009485D01*
X001790Y009525D02*
X001750Y009565D01*
X001710Y009565D01*
X001670Y009525D01*
X001670Y009445D01*
X001710Y009405D01*
X001870Y009700D02*
X001870Y009740D01*
X001910Y009740D01*
X001910Y009700D01*
X001870Y009700D01*
X001870Y009847D02*
X001710Y010007D01*
X001870Y010007D01*
X001910Y009967D01*
X001910Y009887D01*
X001870Y009847D01*
X001710Y009847D01*
X001670Y009887D01*
X001670Y009967D01*
X001710Y010007D01*
X001790Y010142D02*
X001790Y010262D01*
X001830Y010302D01*
X001870Y010302D01*
X001910Y010262D01*
X001910Y010182D01*
X001870Y010142D01*
X001790Y010142D01*
X001710Y010222D01*
X001670Y010302D01*
X001710Y010584D02*
X001670Y010624D01*
X001670Y010704D01*
X001710Y010744D01*
X001870Y010584D01*
X001910Y010624D01*
X001910Y010704D01*
X001870Y010744D01*
X001710Y010744D01*
X001670Y010879D02*
X001790Y010879D01*
X001750Y010959D01*
X001750Y010999D01*
X001790Y011039D01*
X001870Y011039D01*
X001910Y010999D01*
X001910Y010919D01*
X001870Y010879D01*
X001870Y010584D02*
X001710Y010584D01*
X001870Y010477D02*
X001910Y010477D01*
X001910Y010437D01*
X001870Y010437D01*
X001870Y010477D01*
X001670Y010879D02*
X001670Y011039D01*
X001430Y011115D02*
X001390Y011075D01*
X001430Y011115D02*
X001430Y011195D01*
X001390Y011235D01*
X001350Y011235D01*
X001310Y011195D01*
X001310Y011115D01*
X001270Y011075D01*
X001230Y011075D01*
X001190Y011115D01*
X001190Y011195D01*
X001230Y011235D01*
X001430Y010940D02*
X001430Y010780D01*
X001190Y010780D01*
X001270Y010646D02*
X001190Y010566D01*
X001270Y010486D01*
X001430Y010486D01*
X001310Y010486D02*
X001310Y010646D01*
X001270Y010646D02*
X001430Y010646D01*
X001430Y010351D02*
X001350Y010271D01*
X001350Y010311D02*
X001350Y010191D01*
X001430Y010191D02*
X001190Y010191D01*
X001190Y010311D01*
X001230Y010351D01*
X001310Y010351D01*
X001350Y010311D01*
X001430Y010056D02*
X001430Y009896D01*
X001190Y009896D01*
X001190Y010056D01*
X001310Y009976D02*
X001310Y009896D01*
X001310Y009762D02*
X001310Y009602D01*
X001430Y009602D02*
X001190Y009602D01*
X001230Y009467D02*
X001190Y009427D01*
X001190Y009307D01*
X001430Y009307D01*
X001350Y009307D02*
X001350Y009427D01*
X001310Y009467D01*
X001230Y009467D01*
X001190Y009191D02*
X001190Y009111D01*
X001190Y009151D02*
X001430Y009151D01*
X001430Y009111D02*
X001430Y009191D01*
X001430Y008976D02*
X001350Y008896D01*
X001350Y008936D02*
X001350Y008816D01*
X001430Y008816D02*
X001190Y008816D01*
X001190Y008936D01*
X001230Y008976D01*
X001310Y008976D01*
X001350Y008936D01*
X001430Y008681D02*
X001430Y008521D01*
X001190Y008521D01*
X001190Y008681D01*
X001310Y008601D02*
X001310Y008521D01*
X001310Y008387D02*
X001350Y008347D01*
X001350Y008227D01*
X001430Y008227D02*
X001190Y008227D01*
X001190Y008347D01*
X001230Y008387D01*
X001310Y008387D01*
X001750Y008227D02*
X001910Y008307D01*
X001430Y009762D02*
X001190Y009762D01*
X001190Y011664D02*
X001190Y011784D01*
X001230Y011824D01*
X001270Y011824D01*
X001310Y011784D01*
X001310Y011664D01*
X001430Y011664D02*
X001190Y011664D01*
X001310Y011784D02*
X001350Y011824D01*
X001390Y011824D01*
X001430Y011784D01*
X001430Y011664D01*
X001390Y011959D02*
X001230Y011959D01*
X001190Y011999D01*
X001190Y012079D01*
X001230Y012119D01*
X001390Y012119D01*
X001430Y012079D01*
X001430Y011999D01*
X001390Y011959D01*
X001430Y012254D02*
X001270Y012254D01*
X001190Y012334D01*
X001270Y012414D01*
X001430Y012414D01*
X001310Y012414D02*
X001310Y012254D01*
X001350Y012548D02*
X001350Y012668D01*
X001310Y012708D01*
X001230Y012708D01*
X001190Y012668D01*
X001190Y012548D01*
X001430Y012548D01*
X001350Y012628D02*
X001430Y012708D01*
X001430Y012843D02*
X001430Y012963D01*
X001390Y013003D01*
X001230Y013003D01*
X001190Y012963D01*
X001190Y012843D01*
X001430Y012843D01*
X002772Y012720D02*
X002772Y012479D01*
X002852Y012640D02*
X002772Y012720D01*
X002852Y012640D02*
X002932Y012720D01*
X002932Y012479D01*
X003067Y012479D02*
X003227Y012479D01*
X003147Y012479D02*
X003147Y012720D01*
X003067Y012640D01*
X003362Y012680D02*
X003362Y012519D01*
X003522Y012680D01*
X003522Y012519D01*
X003482Y012479D01*
X003402Y012479D01*
X003362Y012519D01*
X003362Y012680D02*
X003402Y012720D01*
X003482Y012720D01*
X003522Y012680D01*
X003656Y012680D02*
X003696Y012720D01*
X003776Y012720D01*
X003816Y012680D01*
X003816Y012640D01*
X003656Y012479D01*
X003816Y012479D01*
X003951Y012479D02*
X003951Y012720D01*
X004031Y012640D01*
X004111Y012720D01*
X004111Y012479D01*
X004246Y012479D02*
X004246Y012720D01*
X004326Y012640D01*
X004406Y012720D01*
X004406Y012479D01*
X004950Y014607D02*
X004950Y014727D01*
X004990Y014767D01*
X005070Y014767D01*
X005110Y014727D01*
X005110Y014607D01*
X005190Y014607D02*
X004950Y014607D01*
X005110Y014687D02*
X005190Y014767D01*
X005190Y014902D02*
X005190Y015062D01*
X005190Y014982D02*
X004950Y014982D01*
X005030Y014902D01*
X004950Y019067D02*
X004450Y019067D01*
X004200Y019317D01*
X003950Y019067D01*
X003450Y019067D01*
X003200Y019317D01*
X002950Y019067D01*
X002450Y019067D01*
X002200Y019317D01*
X001950Y019067D01*
X001450Y019067D01*
X001200Y019317D01*
X001200Y019817D01*
X001450Y020067D01*
X001950Y020067D01*
X002200Y019817D01*
X002450Y020067D01*
X002950Y020067D01*
X003200Y019817D01*
X003450Y020067D01*
X003950Y020067D01*
X004200Y019817D01*
X004450Y020067D01*
X004950Y020067D01*
X005200Y019817D01*
X005200Y019317D01*
X004950Y019067D01*
X002600Y017076D02*
X002600Y016738D01*
X002146Y016588D02*
X001934Y016588D01*
X001480Y016738D02*
X001480Y017076D01*
X001710Y015897D02*
X001710Y015697D01*
X001750Y015657D01*
X001830Y015657D01*
X001870Y015697D01*
X001870Y015897D01*
X002005Y015817D02*
X002085Y015897D01*
X002085Y015657D01*
X002005Y015657D02*
X002165Y015657D01*
D12*
X005455Y016442D02*
X005455Y016577D01*
X005500Y016622D01*
X005590Y016622D01*
X005635Y016577D01*
X005635Y016442D01*
X005635Y016532D02*
X005725Y016622D01*
X005725Y016736D02*
X005545Y016916D01*
X005500Y016916D01*
X005455Y016871D01*
X005455Y016781D01*
X005500Y016736D01*
X005725Y016736D02*
X005725Y016916D01*
X005725Y016442D02*
X005455Y016442D01*
D13*
X005329Y002057D02*
X005329Y001777D01*
X005142Y002057D01*
X005142Y001777D01*
X004990Y001777D02*
X004897Y001777D01*
X004943Y001777D02*
X004943Y002057D01*
X004897Y002057D02*
X004990Y002057D01*
X004715Y001730D02*
X004528Y001730D01*
X004347Y001870D02*
X004347Y002057D01*
X004347Y001870D02*
X004253Y001777D01*
X004160Y001870D01*
X004160Y002057D01*
X006615Y002057D02*
X006615Y001870D01*
X006709Y001777D01*
X006802Y001870D01*
X006802Y002057D01*
X006984Y001730D02*
X007171Y001730D01*
X007352Y001823D02*
X007352Y002010D01*
X007399Y002057D01*
X007492Y002057D01*
X007539Y002010D01*
X007539Y001823D01*
X007492Y001777D01*
X007399Y001777D01*
X007352Y001823D01*
X007720Y001823D02*
X007767Y001777D01*
X007860Y001777D01*
X007907Y001823D01*
X007907Y002057D01*
X007720Y002057D02*
X007720Y001823D01*
X008089Y002057D02*
X008276Y002057D01*
X008182Y002057D02*
X008182Y001777D01*
D14*
X008167Y007402D02*
X008043Y007525D01*
X008105Y007525D02*
X007920Y007525D01*
X007920Y007402D02*
X007920Y007772D01*
X008105Y007772D01*
X008167Y007710D01*
X008167Y007587D01*
X008105Y007525D01*
X008288Y007463D02*
X008350Y007402D01*
X008473Y007402D01*
X008535Y007463D01*
X008535Y007525D01*
X008473Y007587D01*
X008412Y007587D01*
X008473Y007587D02*
X008535Y007649D01*
X008535Y007710D01*
X008473Y007772D01*
X008350Y007772D01*
X008288Y007710D01*
X009393Y007772D02*
X009393Y007402D01*
X009578Y007402D01*
X009640Y007463D01*
X009640Y007525D01*
X009578Y007587D01*
X009393Y007587D01*
X009393Y007772D02*
X009578Y007772D01*
X009640Y007710D01*
X009640Y007649D01*
X009578Y007587D01*
X009548Y010412D02*
X009363Y010412D01*
X009363Y010782D01*
X009548Y010782D01*
X009610Y010720D01*
X009610Y010659D01*
X009548Y010597D01*
X009363Y010597D01*
X009548Y010597D02*
X009610Y010535D01*
X009610Y010473D01*
X009548Y010412D01*
X009548Y012152D02*
X009363Y012152D01*
X009363Y012522D01*
X009548Y012522D01*
X009610Y012460D01*
X009610Y012399D01*
X009548Y012337D01*
X009363Y012337D01*
X009548Y012337D02*
X009610Y012275D01*
X009610Y012213D01*
X009548Y012152D01*
X008505Y012152D02*
X008258Y012152D01*
X008137Y012152D02*
X008013Y012275D01*
X008075Y012275D02*
X007890Y012275D01*
X007890Y012152D02*
X007890Y012522D01*
X008075Y012522D01*
X008137Y012460D01*
X008137Y012337D01*
X008075Y012275D01*
X008258Y012399D02*
X008382Y012522D01*
X008382Y012152D01*
X008443Y010782D02*
X008320Y010782D01*
X008258Y010720D01*
X008137Y010720D02*
X008137Y010597D01*
X008075Y010535D01*
X007890Y010535D01*
X007890Y010412D02*
X007890Y010782D01*
X008075Y010782D01*
X008137Y010720D01*
X008013Y010535D02*
X008137Y010412D01*
X008258Y010412D02*
X008505Y010659D01*
X008505Y010720D01*
X008443Y010782D01*
X008505Y010412D02*
X008258Y010412D01*
X007032Y010412D02*
X007032Y010659D01*
X006908Y010782D01*
X006785Y010659D01*
X006785Y010412D01*
X006785Y010597D02*
X007032Y010597D01*
X007032Y012152D02*
X007032Y012399D01*
X006908Y012522D01*
X006785Y012399D01*
X006785Y012152D01*
X006785Y012337D02*
X007032Y012337D01*
X006938Y007772D02*
X007062Y007649D01*
X007062Y007402D01*
X007062Y007587D02*
X006815Y007587D01*
X006815Y007649D02*
X006938Y007772D01*
X006815Y007649D02*
X006815Y007402D01*
D15*
X005952Y020706D02*
X005330Y020706D01*
X005330Y021336D01*
X005430Y021336D01*
X005430Y023742D01*
X006149Y024608D01*
X008511Y024608D01*
X009230Y023781D01*
X009230Y021336D01*
X009330Y021336D01*
X009330Y020706D01*
X009232Y020706D01*
X009230Y020706D02*
X008708Y020706D01*
X008708Y021419D01*
X005952Y021419D01*
X005952Y020706D01*
X008708Y020706D01*
X007566Y023742D02*
X007566Y023978D01*
X007094Y023978D01*
X007094Y024371D01*
X007566Y024371D01*
X007566Y023978D01*
X007566Y023742D02*
X007094Y023742D01*
X007094Y023978D01*
M02*
