G75*
G70*
%OFA0B0*%
%FSLAX24Y24*%
%IPPOS*%
%LPD*%
%AMOC8*
5,1,8,0,0,1.08239X$1,22.5*
%
%ADD10C,0.0640*%
%ADD11R,0.0680X0.0680*%
%ADD12C,0.0680*%
%ADD13R,0.0474X0.2049*%
%ADD14R,0.0710X0.1261*%
%ADD15C,0.1429*%
%ADD16C,0.1740*%
%ADD17C,0.0780*%
%ADD18C,0.0634*%
D10*
X003250Y001200D02*
X003250Y001760D01*
X004250Y001760D02*
X004250Y001200D01*
X005250Y001200D02*
X005250Y001760D01*
X006250Y001760D02*
X006250Y001200D01*
X006250Y004200D02*
X006250Y004760D01*
X005250Y004760D02*
X005250Y004200D01*
X004250Y004200D02*
X004250Y004760D01*
X003250Y004760D02*
X003250Y004200D01*
D11*
X001815Y008528D03*
X001815Y017189D03*
D12*
X002602Y017189D03*
X003390Y017189D03*
X004177Y017189D03*
X004964Y017189D03*
X005752Y017189D03*
X006539Y017189D03*
X007327Y017189D03*
X008114Y017189D03*
X008901Y017189D03*
X008901Y008528D03*
X008114Y008528D03*
X007327Y008528D03*
X006539Y008528D03*
X005752Y008528D03*
X004964Y008528D03*
X004177Y008528D03*
X003390Y008528D03*
X002602Y008528D03*
D13*
X002629Y006882D03*
X003416Y006882D03*
X004203Y006882D03*
X004991Y006882D03*
X005778Y006882D03*
X006566Y006882D03*
X007353Y006882D03*
X008140Y006882D03*
X008928Y006882D03*
X008869Y018778D03*
X008081Y018778D03*
X007294Y018778D03*
X006507Y018778D03*
X005719Y018778D03*
X004932Y018778D03*
X004144Y018778D03*
X003357Y018778D03*
X002570Y018778D03*
X001782Y018778D03*
X001841Y006882D03*
D14*
X000896Y006094D03*
X000837Y019526D03*
X009814Y019566D03*
X009873Y006134D03*
D15*
X007583Y022898D03*
X004709Y022898D03*
D16*
X001815Y001835D03*
X010476Y001835D03*
X010476Y022307D03*
X001815Y022307D03*
D17*
X010000Y008600D03*
X011350Y006660D03*
X011600Y008580D03*
D18*
X009780Y007330D03*
X010890Y017130D03*
M02*
