G75*
G70*
%OFA0B0*%
%FSLAX24Y24*%
%IPPOS*%
%LPD*%
%AMOC8*
5,1,8,0,0,1.08239X$1,22.5*
%
%ADD10R,0.0635X0.0635*%
%ADD11C,0.0635*%
%ADD12C,0.1029*%
%ADD13R,0.0820X0.0820*%
%ADD14C,0.0820*%
%ADD15C,0.1740*%
D10*
X003232Y005028D03*
X003232Y013689D03*
D11*
X004020Y013689D03*
X004807Y013689D03*
X005595Y013689D03*
X006382Y013689D03*
X007169Y013689D03*
X007957Y013689D03*
X008744Y013689D03*
X009532Y013689D03*
X010319Y013689D03*
X010319Y005028D03*
X009532Y005028D03*
X008744Y005028D03*
X007957Y005028D03*
X007169Y005028D03*
X006382Y005028D03*
X005595Y005028D03*
X004807Y005028D03*
X004020Y005028D03*
D12*
X005893Y022797D03*
X008767Y022797D03*
D13*
X004700Y019517D03*
D14*
X003700Y019617D03*
X002700Y019517D03*
X001700Y019617D03*
X003280Y003497D03*
X004280Y003597D03*
X005280Y003497D03*
X006280Y003597D03*
X007280Y003497D03*
X007650Y001097D03*
X006650Y000997D03*
X005650Y001097D03*
X004650Y000997D03*
X003650Y001097D03*
X008650Y000997D03*
D15*
X001745Y001711D03*
X010406Y001711D03*
X010406Y022184D03*
X001745Y022184D03*
M02*
